o Default
v 0.5 -0.5 1
v 0.5 0.5 1
v 1 0.5 0.5
v 1 -0.5 0.5
v 1 -0.5 0.5
v 1 0.5 -0.5
v 1 0.5 0.5
v 1 -0.5 -0.5
v 1 -0.5 -0.5
v 0.5 0.5 -1
v 1 0.5 -0.5
v 0.5 -0.5 -1
v 0.5 -0.5 -1
v -0.5 0.5 -1
v 0.5 0.5 -1
v -0.5 -0.5 -1
v -0.5 -0.5 -1
v -1 0.5 -0.5
v -0.5 0.5 -1
v -1 -0.5 -0.5
v -1 1.5 0.5
v 1 1.5 -0.5
v -1 1.5 -0.5
v 1 1.5 0.5
v -1 1.5 -0.5
v 0.5 1.5000190734863281 -0.9999499917030334
v -0.5 1.5000190734863281 -0.9999499917030334
v 1 1.5 -0.5
v -0.5 1.499819278717041 0.9998999834060669
v 1 1.5 0.5
v -1 1.5 0.5
v 0.5 1.499819278717041 0.9998999834060669
v -1 -1.5 -0.5
v 1 -1.5 0.5
v -1 -1.5 0.5
v 1 -1.5 -0.5
v -1 -1.5 0.5
v 0.5 -1.5001555681228638 0.9999499917030334
v -0.5 -1.5001555681228638 0.9999499917030334
v 1 -1.5 0.5
v -0.5 -1.5003418922424316 -1.0002000331878662
v 1 -1.5 -0.5
v -1 -1.5 -0.5
v 0.5 -1.5003418922424316 -1.0002000331878662
v -0.5 -1.5001555681228638 0.9999499917030334
v 0.5 0.5 1
v -0.5 0.4999999701976776 1
v 0.5 -1.5001555681228638 0.9999499917030334
v -0.5 0.4999999701976776 1
v 0.5 1.499819278717041 0.9998999834060669
v -0.5 1.499819278717041 0.9998999834060669
v 0.5 0.5 1
v 0.5 0.5 1
v 1 1.5 0.5
v 0.5 1.499819278717041 0.9998999834060669
v 1 0.5 0.5
v 0.5 -1.5001555681228638 0.9999499917030334
v 1 -0.5 0.5
v 0.5 -0.5 1
v 1 -1.5 0.5
v 1 0.5 0.5
v 1 1.5 -0.5
v 1 1.5 0.5
v 1 0.5 -0.5
v 1 0.5 -0.5
v 0.5 1.5000190734863281 -0.9999499917030334
v 1 1.5 -0.5
v 0.5 0.5 -1
v 1 -1.5 0.5
v 1 -0.5 -0.5
v 1 -0.5 0.5
v 1 -1.5 -0.5
v 1 -1.5 -0.5
v 0.5 -0.5 -1
v 1 -0.5 -0.5
v 0.5 -1.5003418922424316 -1.0002000331878662
v 0.5 0.5 -1
v -0.5 1.5000190734863281 -0.9999499917030334
v 0.5 1.5000190734863281 -0.9999499917030334
v -0.5 0.5 -1
v -0.5 0.5 -1
v -1 1.5 -0.5
v -0.5 1.5000190734863281 -0.9999499917030334
v -1 0.5 -0.5
v 0.5 -1.5003418922424316 -1.0002000331878662
v -0.5 -0.5 -1
v 0.5 -0.5 -1
v -0.5 -1.5003418922424316 -1.0002000331878662
v -0.5 -1.5003418922424316 -1.0002000331878662
v -1 -0.5 -0.5
v -0.5 -0.5 -1
v -1 -1.5 -0.5
v -1 -0.5 -0.5
v -1 0.49965807795524597 0.4997999668121338
v -1 0.5 -0.5
v -1 -0.5000000596046448 0.5
v -1 -0.5000000596046448 0.5
v -0.5 0.4999999701976776 1
v -1 0.49965807795524597 0.4997999668121338
v -0.5 -0.5003418922424316 0.9997999668121338
v -1 0.5 -0.5
v -1 1.5 0.5
v -1 1.5 -0.5
v -1 0.49965807795524597 0.4997999668121338
v -1 0.49965807795524597 0.4997999668121338
v -0.5 1.499819278717041 0.9998999834060669
v -1 1.5 0.5
v -0.5 0.4999999701976776 1
v -1 -1.5 -0.5
v -1 -0.5000000596046448 0.5
v -1 -0.5 -0.5
v -1 -1.5 0.5
v -1 -1.5 0.5
v -0.5 -0.5003418922424316 0.9997999668121338
v -1 -0.5000000596046448 0.5
v -0.5 -1.5003418922424316 0.9997999668121338
vt 0.125 0.5
vt 0.25 0.75
vt 0.125 0.75
vt 0.125 0.5
vt 0.25 0.5
vt 0.25 0.75
vt 0.125 0.5
vt 0.25 0.75
vt 0.125 0.75
vt 0.125 0.5
vt 0.25 0.5
vt 0.25 0.75
vt 0.125 0.5
vt 0.25 0.75
vt 0.125 0.75
vt 0.125 0.5
vt 0.25 0.5
vt 0.25 0.75
vt 0.125 0.5
vt 0.25 0.75
vt 0.125 0.75
vt 0.125 0.5
vt 0.25 0.5
vt 0.25 0.75
vt 0.125 0.5
vt 0.25 0.75
vt 0.125 0.75
vt 0.125 0.5
vt 0.25 0.5
vt 0.25 0.75
vt 0.75 0.625
vt 1 0.875
vt 0.75 0.875
vt 0.75 0.625
vt 1 0.625
vt 1 0.875
vt 0.7578125 0.875
vt 0.9296875 1
vt 0.8203125 1
vt 0.7578125 0.875
vt 0.9921875 0.875
vt 0.9296875 1
vt 0.8203125 0.5
vt 0.9921875 0.625
vt 0.7578125 0.625
vt 0.8203125 0.5
vt 0.9296875 0.5
vt 0.9921875 0.625
vt 0.75 0.625
vt 1 0.875
vt 0.75 0.875
vt 0.75 0.625
vt 1 0.625
vt 1 0.875
vt 0.7578125 0.875
vt 0.9296875 1
vt 0.828125 1.015625
vt 0.7578125 0.875
vt 0.9921875 0.875
vt 0.9296875 1
vt 0.8203125 0.5
vt 0.9921875 0.625
vt 0.7578125 0.625
vt 0.8203125 0.5
vt 0.9296875 0.5
vt 0.9921875 0.625
vt 0 0.25
vt 0.125 0.75
vt 0 0.75
vt 0 0.25
vt 0.125 0.25
vt 0.125 0.75
vt 0 0.25
vt 0.125 0.5
vt 0 0.5
vt 0 0.25
vt 0.125 0.25
vt 0.125 0.5
vt 0 0.25
vt 0.125 0.5
vt 0 0.5
vt 0 0.25
vt 0.125 0.25
vt 0.125 0.5
vt 0 0.25
vt 0.125 0.5
vt 0 0.5
vt 0 0.25
vt 0.125 0.25
vt 0.125 0.5
vt 0 0.25
vt 0.125 0.5
vt 0 0.5
vt 0 0.25
vt 0.125 0.25
vt 0.125 0.5
vt 0 0.25
vt 0.125 0.5
vt 0 0.5
vt 0 0.25
vt 0.125 0.25
vt 0.125 0.5
vt 0 0.25
vt 0.125 0.5
vt 0 0.5
vt 0 0.25
vt 0.125 0.25
vt 0.125 0.5
vt 0 0.25
vt 0.125 0.5
vt 0 0.5
vt 0 0.25
vt 0.125 0.25
vt 0.125 0.5
vt 0 0.25
vt 0.125 0.5
vt 0 0.5
vt 0 0.25
vt 0.125 0.25
vt 0.125 0.5
vt 0 0.25
vt 0.125 0.5
vt 0 0.5
vt 0 0.25
vt 0.125 0.25
vt 0.125 0.5
vt 0 0.25
vt 0.125 0.5
vt 0 0.5
vt 0 0.25
vt 0.125 0.25
vt 0.125 0.5
vt 0 0.25
vt 0.125 0.5
vt 0 0.5
vt 0 0.25
vt 0.125 0.25
vt 0.125 0.5
vt 0.125 0.5
vt 0.25 0.75
vt 0.125 0.75
vt 0.125 0.5
vt 0.25 0.5
vt 0.25 0.75
vt 0.125 0.5
vt 0.25 0.75
vt 0.125 0.75
vt 0.125 0.5
vt 0.25 0.5
vt 0.25 0.75
vt 0 0.25
vt 0.125 0.5
vt 0 0.5
vt 0 0.25
vt 0.125 0.25
vt 0.125 0.5
vt 0 0.25
vt 0.125 0.5
vt 0 0.5
vt 0 0.25
vt 0.125 0.25
vt 0.125 0.5
vt 0 0.25
vt 0.125 0.5
vt 0 0.5
vt 0 0.25
vt 0.125 0.25
vt 0.125 0.5
vt 0 0.25
vt 0.125 0.5
vt 0 0.5
vt 0 0.25
vt 0.125 0.25
vt 0.125 0.5
vn 0.7071067811865475 0 0.7071067811865475
vn 0.7071067811865475 0 0.7071067811865475
vn 0.7071067811865475 0 0.7071067811865475
vn 0.7071067811865475 0 0.7071067811865475
vn 0.7071067811865475 0 0.7071067811865475
vn 0.7071067811865475 0 0.7071067811865475
vn 1 0 0
vn 1 0 0
vn 1 0 0
vn 1 0 0
vn 1 0 0
vn 1 0 0
vn 0.7071067811865475 0 -0.7071067811865475
vn 0.7071067811865475 0 -0.7071067811865475
vn 0.7071067811865475 0 -0.7071067811865475
vn 0.7071067811865475 0 -0.7071067811865475
vn 0.7071067811865475 0 -0.7071067811865475
vn 0.7071067811865475 0 -0.7071067811865475
vn 0 0 -1
vn 0 0 -1
vn 0 0 -1
vn 0 0 -1
vn 0 0 -1
vn 0 0 -1
vn -0.7071067811865475 0 -0.7071067811865475
vn -0.7071067811865475 0 -0.7071067811865475
vn -0.7071067811865475 0 -0.7071067811865475
vn -0.7071067811865475 0 -0.7071067811865475
vn -0.7071067811865475 0 -0.7071067811865475
vn -0.7071067811865475 0 -0.7071067811865475
vn 0 1 0
vn 0 1 0
vn 0 1 0
vn 0 1 0
vn 0 1 0
vn 0 1 0
vn 0 0.9999999992722587 0.00003815078834039454
vn 0 0.9999999992722587 0.00003815078834039454
vn 0 0.9999999992722587 0.00003815078834039454
vn 0 0.9999999992722587 0.00003815078834039454
vn 0 0.9999999992722587 0.00003815078834039454
vn 0 0.9999999992722587 0.00003815078834039454
vn 0 0.9999999346535019 0.0003615148572683232
vn 0 0.9999999346535019 0.0003615148572683232
vn 0 0.9999999346535019 0.0003615148572683232
vn 0 0.9999999346535019 0.0003615148572683232
vn 0 0.9999999346535019 0.0003615148572683232
vn 0 0.9999999346535019 0.0003615148572683232
vn 0 -1 0
vn 0 -1 0
vn 0 -1 0
vn 0 -1 0
vn 0 -1 0
vn 0 -1 0
vn 0 -0.9999999515874382 -0.0003111673525633829
vn 0 -0.9999999515874382 -0.0003111673525633829
vn 0 -0.9999999515874382 -0.0003111673525633829
vn 0 -0.9999999515874382 -0.0003111673525633829
vn 0 -0.9999999515874382 -0.0003111673525633829
vn 0 -0.9999999515874382 -0.0003111673525633829
vn 0 -0.9999997664064143 0.0006835108754169098
vn 0 -0.9999997664064143 0.0006835108754169098
vn 0 -0.9999997664064143 0.0006835108754169098
vn 0 -0.9999997664064143 0.0006835108754169098
vn 0 -0.9999997664064143 0.0006835108754169098
vn 0 -0.9999997664064143 0.0006835108754169098
vn 7.451237462474512e-13 -0.000025002204075045358 0.9999999996874448
vn 7.451237462474512e-13 -0.000025002204075045358 0.9999999996874448
vn 7.451237462474512e-13 -0.000025002204075045358 0.9999999996874448
vn 0 -0.00002500220370251246 0.9999999996874448
vn 0 -0.00002500220370251246 0.9999999996874448
vn 0 -0.00002500220370251246 0.9999999996874448
vn 0 0.00010003466884510431 0.9999999949965325
vn 0 0.00010003466884510431 0.9999999949965325
vn 0 0.00010003466884510431 0.9999999949965325
vn -2.9812655397328316e-12 0.0001000346718269086 0.9999999949965321
vn -2.9812655397328316e-12 0.0001000346718269086 0.9999999949965321
vn -2.9812655397328316e-12 0.0001000346718269086 0.9999999949965321
vn 0.7070360336072011 0.00007074227130544082 0.707177518149812
vn 0.7070360336072011 0.00007074227130544082 0.707177518149812
vn 0.7070360336072011 0.00007074227130544082 0.707177518149812
vn 0.7071067811865475 0 0.7071067811865475
vn 0.7071067811865475 0 0.7071067811865475
vn 0.7071067811865475 0 0.7071067811865475
vn 0.7071067807445965 -0.000035355705657777175 0.7071067807445965
vn 0.7071067807445965 -0.000035355705657777175 0.7071067807445965
vn 0.7071067807445965 -0.000035355705657777175 0.7071067807445965
vn 0.7070714173279837 0 0.7071421432765808
vn 0.7070714173279837 0 0.7071421432765808
vn 0.7070714173279837 0 0.7071421432765808
vn 1 0 0
vn 1 0 0
vn 1 0 0
vn 1 0 0
vn 1 0 0
vn 1 0 0
vn 0.7070714173279837 0 -0.7071421432765808
vn 0.7070714173279837 0 -0.7071421432765808
vn 0.7070714173279837 0 -0.7071421432765808
vn 0.707106780744476 0.00003536053142992006 -0.707106780744476
vn 0.707106780744476 0.00003536053142992006 -0.707106780744476
vn 0.707106780744476 0.00003536053142992006 -0.707106780744476
vn 1 0 0
vn 1 0 0
vn 1 0 0
vn 1 0 0
vn 1 0 0
vn 1 0 0
vn 0.7071067811865475 0 -0.7071067811865475
vn 0.7071067811865475 0 -0.7071067811865475
vn 0.7071067811865475 0 -0.7071067811865475
vn 0.7072481281976204 0.00014136820833527186 -0.7069653917809499
vn 0.7072481281976204 0.00014136820833527186 -0.7069653917809499
vn 0.7072481281976204 0.00014136820833527186 -0.7069653917809499
vn 0 0.00005000734308964927 -0.9999999987496327
vn 0 0.00005000734308964927 -0.9999999987496327
vn 0 0.00005000734308964927 -0.9999999987496327
vn 0 0.00005000734308964927 -0.9999999987496327
vn 0 0.00005000734308964927 -0.9999999987496327
vn 0 0.00005000734308964927 -0.9999999987496327
vn -0.7070714175604398 0.00003536229976035854 -0.7071421421599605
vn -0.7070714175604398 0.00003536229976035854 -0.7071421421599605
vn -0.7070714175604398 0.00003536229976035854 -0.7071421421599605
vn -0.7071067811865475 0 -0.7071067811865475
vn -0.7071067811865475 0 -0.7071067811865475
vn -0.7071067811865475 0 -0.7071067811865475
vn 0 0.00019996481744711015 -0.9999999800070358
vn 0 0.00019996481744711015 -0.9999999800070358
vn 0 0.00019996481744711015 -0.9999999800070358
vn 0 0.00019996481744711015 -0.9999999800070358
vn 0 0.00019996481744711015 -0.9999999800070358
vn 0 0.00019996481744711015 -0.9999999800070358
vn -0.7071067741179671 0.000141396479829049 -0.7071067741179671
vn -0.7071067741179671 0.000141396479829049 -0.7071067741179671
vn -0.7071067741179671 0.000141396479829049 -0.7071067741179671
vn -0.7072481835781504 0 -0.7069653505126025
vn -0.7072481835781504 0 -0.7069653505126025
vn -0.7072481835781504 0 -0.7069653505126025
vn -1 0 0
vn -1 0 0
vn -1 0 0
vn -1 0 0
vn -1 0 0
vn -1 0 0
vn -0.7072482248477131 0.00014146488321436457 0.7069652950728524
vn -0.7072482248477131 0.00014146488321436457 0.7069652950728524
vn -0.7072482248477131 0.00014146488321436457 0.7069652950728524
vn -0.706965335206915 -0.00014142476119172572 0.707248184737728
vn -0.706965335206915 -0.00014142476119172572 0.707248184737728
vn -0.706965335206915 -0.00014142476119172572 0.707248184737728
vn -1 0 0
vn -1 0 0
vn -1 0 0
vn -1 0 0
vn -1 0 0
vn -1 0 0
vn -0.7070360666552962 -0.00014141061320701255 0.7071774745080943
vn -0.7070360666552962 -0.00014141061320701255 0.7071774745080943
vn -0.7070360666552962 -0.00014141061320701255 0.7071774745080943
vn -0.7072482059788158 0.00007072104248175159 0.7069653245656966
vn -0.7072482059788158 0.00007072104248175159 0.7069653245656966
vn -0.7072482059788158 0.00007072104248175159 0.7069653245656966
vn -1 0 0
vn -1 0 0
vn -1 0 0
vn -1 0 0
vn -1 0 0
vn -1 0 0
vn -0.7069652939139662 0 0.7072482401541479
vn -0.7069652939139662 0 0.7072482401541479
vn -0.7069652939139662 0 0.7072482401541479
vn -0.7069652939139662 0 0.7072482401541479
vn -0.7069652939139662 0 0.7072482401541479
vn -0.7069652939139662 0 0.7072482401541479
g Scene
usemtl material0
f 1/1/1 3/2/2 2/3/3
f 1/4/4 4/5/5 3/6/6
f 5/7/7 6/8/8 7/9/9
f 5/10/10 8/11/11 6/12/12
f 9/13/13 10/14/14 11/15/15
f 9/16/16 12/17/17 10/18/18
f 13/19/19 14/20/20 15/21/21
f 13/22/22 16/23/23 14/24/24
f 17/25/25 18/26/26 19/27/27
f 17/28/28 20/29/29 18/30/30
f 21/31/31 22/32/32 23/33/33
f 21/34/34 24/35/35 22/36/36
f 25/37/37 26/38/38 27/39/39
f 25/40/40 28/41/41 26/42/42
f 29/43/43 30/44/44 31/45/45
f 29/46/46 32/47/47 30/48/48
f 33/49/49 34/50/50 35/51/51
f 33/52/52 36/53/53 34/54/54
f 37/55/55 38/56/56 39/57/57
f 37/58/58 40/59/59 38/60/60
f 41/61/61 42/62/62 43/63/63
f 41/64/64 44/65/65 42/66/66
f 45/67/67 46/68/68 47/69/69
f 45/70/70 48/71/71 46/72/72
f 49/73/73 50/74/74 51/75/75
f 49/76/76 52/77/77 50/78/78
f 53/79/79 54/80/80 55/81/81
f 53/82/82 56/83/83 54/84/84
f 57/85/85 58/86/86 59/87/87
f 57/88/88 60/89/89 58/90/90
f 61/91/91 62/92/92 63/93/93
f 61/94/94 64/95/95 62/96/96
f 65/97/97 66/98/98 67/99/99
f 65/100/100 68/101/101 66/102/102
f 69/103/103 70/104/104 71/105/105
f 69/106/106 72/107/107 70/108/108
f 73/109/109 74/110/110 75/111/111
f 73/112/112 76/113/113 74/114/114
f 77/115/115 78/116/116 79/117/117
f 77/118/118 80/119/119 78/120/120
f 81/121/121 82/122/122 83/123/123
f 81/124/124 84/125/125 82/126/126
f 85/127/127 86/128/128 87/129/129
f 85/130/130 88/131/131 86/132/132
f 89/133/133 90/134/134 91/135/135
f 89/136/136 92/137/137 90/138/138
f 93/139/139 94/140/140 95/141/141
f 93/142/142 96/143/143 94/144/144
f 97/145/145 98/146/146 99/147/147
f 97/148/148 100/149/149 98/150/150
f 101/151/151 102/152/152 103/153/153
f 101/154/154 104/155/155 102/156/156
f 105/157/157 106/158/158 107/159/159
f 105/160/160 108/161/161 106/162/162
f 109/163/163 110/164/164 111/165/165
f 109/166/166 112/167/167 110/168/168
f 113/169/169 114/170/170 115/171/171
f 113/172/172 116/173/173 114/174/174
