o Default
v 0 -0.000023172260625869967 -0.062449999153614044
v 0 0.00002057773781416472 -0.49994999170303345
v 1 0.00002057773781416472 -0.49994999170303345
v 1 -0.000023172260625869967 -0.062449999153614044
v 0 -0.50007164478302 0.4375062584877014
v 1 -0.5000278949737549 0.000006250312253541779
v 0 -0.5000278949737549 0.000006250312253541779
v 1 -0.50007164478302 0.4375062584877014
v -1 0 -0.5
v -1 0 0.5
v -1 1 -0.5
v -1 -1 0.5
v -1 -1 0.5
v -1 1 -0.5
v -1 0 0.5
v -1 0 -0.5
v 1 -1 0.5
v 1 1 -0.5
v 1 0 0.5
v 1 0.00002057773781416472 -0.49994999170303345
v 1 0.00002057773781416472 -0.49994999170303345
v 1 0 0.5
v 1 1 -0.5
v 1 -1 0.5
v -1 -0.5000316500663757 0.43755000829696655
v 0 -0.5000278949737549 0.000006250312253541779
v -1 -0.4999879002571106 0.00005000249802833423
v 0 -0.50007164478302 0.4375062584877014
v -1 -0.000025237763111363165 -0.062449999153614044
v 0 0.00002057773781416472 -0.49994999170303345
v -1 0 -0.5
v 0 -0.000023172260625869967 -0.062449999153614044
v 0 0.00002057773781416472 -0.49994999170303345
v 1 -0.000023172260625869967 -0.062449999153614044
v 0 -0.000023172260625869967 -0.062449999153614044
v 1 0.00002057773781416472 -0.49994999170303345
v -1 0 -0.5
v 0 -0.000023172260625869967 -0.062449999153614044
v -1 -0.000025237763111363165 -0.062449999153614044
v 0 0.00002057773781416472 -0.49994999170303345
v 0 -0.5000278949737549 0.000006250312253541779
v 1 -0.50007164478302 0.4375062584877014
v 0 -0.50007164478302 0.4375062584877014
v 1 -0.5000278949737549 0.000006250312253541779
v -1 -0.4999879002571106 0.00005000249802833423
v 0 -0.50007164478302 0.4375062584877014
v -1 -0.5000316500663757 0.43755000829696655
v 0 -0.5000278949737549 0.000006250312253541779
vt 0.1875 0.798828125
vt 0.25 0.8125
vt 0.1875 0.8125
vt 0.1875 0.798828125
vt 0.25 0.798828125
vt 0.25 0.8125
vt 0.1875 0.798828125
vt 0.25 0.8125
vt 0.1875 0.8125
vt 0.1875 0.798828125
vt 0.25 0.798828125
vt 0.25 0.8125
vt 0.8125 0.9375
vt 0.875 0.96875
vt 0.8125 0.96875
vt 0.8125 0.9375
vt 0.875 0.9375
vt 0.875 0.96875
vt 0.8125 0.9375
vt 0.875 0.96875
vt 0.8125 0.96875
vt 0.8125 0.9375
vt 0.875 0.9375
vt 0.875 0.96875
vt 0.8125 0.9375
vt 0.875 0.96875
vt 0.8125 0.96875
vt 0.8125 0.9375
vt 0.875 0.9375
vt 0.875 0.96875
vt 0.8125 0.9375
vt 0.875 0.96875
vt 0.8125 0.96875
vt 0.8125 0.9375
vt 0.875 0.9375
vt 0.875 0.96875
vt 0.1875 0.798828125
vt 0.25 0.8125
vt 0.1875 0.8125
vt 0.1875 0.798828125
vt 0.25 0.798828125
vt 0.25 0.8125
vt 0.1875 0.798828125
vt 0.25 0.8125
vt 0.1875 0.8125
vt 0.1875 0.798828125
vt 0.25 0.798828125
vt 0.25 0.8125
vt 0.1875 0.798828125
vt 0.25 0.8125
vt 0.1875 0.8125
vt 0.1875 0.798828125
vt 0.25 0.798828125
vt 0.25 0.8125
vt 0.1875 0.798828125
vt 0.25 0.8125
vt 0.1875 0.8125
vt 0.1875 0.798828125
vt 0.25 0.798828125
vt 0.25 0.8125
vt 0.1875 0.798828125
vt 0.25 0.8125
vt 0.1875 0.8125
vt 0.1875 0.798828125
vt 0.25 0.798828125
vt 0.25 0.8125
vt 0.1875 0.798828125
vt 0.25 0.8125
vt 0.1875 0.8125
vt 0.1875 0.798828125
vt 0.25 0.798828125
vt 0.25 0.8125
vn 0 0.9999999950000004 0.00009999999763735486
vn 0 0.9999999950000004 0.00009999999763735486
vn 0 0.9999999950000004 0.00009999999763735486
vn 0 0.9999999950000004 0.00009999999763735486
vn 0 0.9999999950000004 0.00009999999763735486
vn 0 0.9999999950000004 0.00009999999763735486
vn 0 0.9999999950000439 0.00009999956166593918
vn 0 0.9999999950000439 0.00009999956166593918
vn 0 0.9999999950000439 0.00009999956166593918
vn 0 0.9999999950000439 0.00009999956166593918
vn 0 0.9999999950000439 0.00009999956166593918
vn 0 0.9999999950000439 0.00009999956166593918
vn -1 0 0
vn -1 0 0
vn -1 0 0
vn -1 0 0
vn -1 0 0
vn -1 0 0
vn 1 0 0
vn 1 0 0
vn 1 0 0
vn 1 0 0
vn 1 0 0
vn 1 0 0
vn 1 0 0
vn 1 0 0
vn 1 0 0
vn 1 0 0
vn 1 0 0
vn 1 0 0
vn -1 0 0
vn -1 0 0
vn -1 0 0
vn -0.9999999999999999 0 0
vn -0.9999999999999999 0 0
vn -0.9999999999999999 0 0
vn 0.000039999091611740635 0.9999999942000802 0.00009999956212914297
vn 0.000039999091611740635 0.9999999942000802 0.00009999956212914297
vn 0.000039999091611740635 0.9999999942000802 0.00009999956212914297
vn 0.000039999091374066944 0.9999999942000802 0.00009999956158594316
vn 0.000039999091374066944 0.9999999942000802 0.00009999956158594316
vn 0.000039999091374066944 0.9999999942000802 0.00009999956158594316
vn -0.000020580622240317675 0.9999999981247438 0.00005767972349495277
vn -0.000020580622240317675 0.9999999981247438 0.00005767972349495277
vn -0.000020580622240317675 0.9999999981247438 0.00005767972349495277
vn -0.00000206550247516128 0.9999999949978671 0.00009999999763714153
vn -0.00000206550247516128 0.9999999949978671 0.00009999999763714153
vn -0.00000206550247516128 0.9999999949978671 0.00009999999763714153
vn 0 -0.9999999950000004 -0.00009999999763735486
vn 0 -0.9999999950000004 -0.00009999999763735486
vn 0 -0.9999999950000004 -0.00009999999763735486
vn 0 -0.9999999950000004 -0.00009999999763735486
vn 0 -0.9999999950000004 -0.00009999999763735486
vn 0 -0.9999999950000004 -0.00009999999763735486
vn 0.0000020655024820528797 -0.9999999983343915 -0.00005767972350704519
vn 0.0000020655024820528797 -0.9999999983343915 -0.00005767972350704519
vn 0.0000020655024820528797 -0.9999999983343915 -0.00005767972350704519
vn 0.00002058273853649461 -0.9999999947881758 -0.00009999999761617241
vn 0.00002058273853649461 -0.9999999947881758 -0.00009999999761617241
vn 0.00002058273853649461 -0.9999999947881758 -0.00009999999761617241
vn 0 -0.9999999950000439 -0.00009999956166593918
vn 0 -0.9999999950000439 -0.00009999956166593918
vn 0 -0.9999999950000439 -0.00009999956166593918
vn 0 -0.9999999950000439 -0.00009999956166593918
vn 0 -0.9999999950000439 -0.00009999956166593918
vn 0 -0.9999999950000439 -0.00009999956166593918
vn -0.00003999909137409071 -0.9999999942000802 -0.00009999956212914297
vn -0.00003999909137409071 -0.9999999942000802 -0.00009999956212914297
vn -0.00003999909137409071 -0.9999999942000802 -0.00009999956212914297
vn -0.000039999091611716864 -0.9999999942000802 -0.00009999956158594316
vn -0.000039999091611716864 -0.9999999942000802 -0.00009999956158594316
vn -0.000039999091611716864 -0.9999999942000802 -0.00009999956158594316
g Scene
f 1/1/1 3/2/2 2/3/3
f 1/4/4 4/5/5 3/6/6
f 5/7/7 6/8/8 7/9/9
f 5/10/10 8/11/11 6/12/12
f 9/13/13 10/14/14 11/15/15
f 9/16/16 12/17/17 10/18/18
f 13/19/19 14/20/20 15/21/21
f 13/22/22 16/23/23 14/24/24
f 17/25/25 18/26/26 19/27/27
f 17/28/28 20/29/29 18/30/30
f 21/31/31 22/32/32 23/33/33
f 21/34/34 24/35/35 22/36/36
f 25/37/37 26/38/38 27/39/39
f 25/40/40 28/41/41 26/42/42
f 29/43/43 30/44/44 31/45/45
f 29/46/46 32/47/47 30/48/48
f 33/49/49 34/50/50 35/51/51
f 33/52/52 36/53/53 34/54/54
f 37/55/55 38/56/56 39/57/57
f 37/58/58 40/59/59 38/60/60
f 41/61/61 42/62/62 43/63/63
f 41/64/64 44/65/65 42/66/66
f 45/67/67 46/68/68 47/69/69
f 45/70/70 48/71/71 46/72/72
