o Default
v -0.4375 -0.06250481307506561 -0.43744999170303345
v -0.4375 -0.06241731345653534 0.43755000829696655
v 0.4375 -0.06241731345653534 0.43755000829696655
v 0.4375 -0.06250481307506561 -0.43744999170303345
v -0.5 -0.000021753838154836558 -0.49994999170303345
v -0.4375 -0.06241731345653534 0.43755000829696655
v -0.5 0.00007824785279808566 0.5000500082969666
v -0.4375 -0.06250481307506561 -0.43744999170303345
v 0.4375 -0.06250481307506561 -0.43744999170303345
v 0.5 0.00007858199387555942 0.5000500082969666
v 0.4375 -0.06241731345653534 0.43755000829696655
v 0.5 -0.00002141970253433101 -0.49994999170303345
v -0.4375 -0.06241731345653534 0.43755000829696655
v 0.5 0.00007858199387555942 0.5000500082969666
v -0.5 0.00007824785279808566 0.5000500082969666
v 0.4375 -0.06241731345653534 0.43755000829696655
v -0.5 -0.000021753838154836558 -0.49994999170303345
v 0.4375 -0.06250481307506561 -0.43744999170303345
v -0.4375 -0.06250481307506561 -0.43744999170303345
v 0.5 -0.00002141970253433101 -0.49994999170303345
v -0.5 0.00007824785279808566 0.5000500082969666
v 0.5 -0.00002141970253433101 -0.49994999170303345
v -0.5 -0.000021753838154836558 -0.49994999170303345
v 0.5 -0.00017752051644492894 0.49994999170303345
vt 0.75390625 0.876953125
vt 0.80859375 0.904296875
vt 0.75390625 0.904296875
vt 0.75390625 0.876953125
vt 0.80859375 0.876953125
vt 0.80859375 0.904296875
vt 0.75 0.875
vt 0.75390625 0.90625
vt 0.75 0.90625
vt 0.75 0.875
vt 0.75390625 0.875
vt 0.75390625 0.90625
vt 0.75 0.875
vt 0.75390625 0.90625
vt 0.75 0.90625
vt 0.75 0.875
vt 0.75390625 0.875
vt 0.75390625 0.90625
vt 0.75390625 0.904296875
vt 0.80859375 0.90625
vt 0.75390625 0.90625
vt 0.75390625 0.904296875
vt 0.80859375 0.904296875
vt 0.80859375 0.90625
vt 0.75390625 0.904296875
vt 0.80859375 0.90625
vt 0.75390625 0.90625
vt 0.75390625 0.904296875
vt 0.80859375 0.904296875
vt 0.80859375 0.90625
vt 0.25 0.9375
vt 0.3125 0.96875
vt 0.25 0.96875
vt 0.25 0.9375
vt 0.3125 0.9375
vt 0.3125 0.96875
vn 0 -0.9999999950000436 0.00009999956353460475
vn 0 -0.9999999950000436 0.00009999956353460475
vn 0 -0.9999999950000436 0.00009999956353460475
vn 0 -0.9999999950000436 0.00009999956353460475
vn 0 -0.9999999950000436 0.00009999956353460475
vn 0 -0.9999999950000436 0.00009999956353460475
vn -0.7070463066992735 -0.7071672469662977 0.00007071792048315253
vn -0.7070463066992735 -0.7071672469662977 0.00007071792048315253
vn -0.7070463066992735 -0.7071672469662977 0.00007071792048315253
vn -0.7070462954167667 -0.7071672582470251 0.00007071641752424463
vn -0.7070462954167667 -0.7071672582470251 0.00007071641752424463
vn -0.7070462954167667 -0.7071672582470251 0.00007071641752424463
vn 0.7070481981162666 -0.7071653558678874 0.00007071622728716024
vn 0.7070481981162666 -0.7071653558678874 0.00007071622728716024
vn 0.7070481981162666 -0.7071653558678874 0.00007071622728716024
vn 0.7070481868047525 -0.7071653671773763 0.00007071773636006068
vn 0.7070481868047525 -0.7071653671773763 0.00007071773636006068
vn 0.7070481868047525 -0.7071653671773763 0.00007071773636006068
vn 2.3628177238495378e-7 -0.7071317725175803 0.7070817889721733
vn 2.3628177238495378e-7 -0.7071317725175803 0.7070817889721733
vn 2.3628177238495378e-7 -0.7071317725175803 0.7070817889721733
vn 0 -0.7071300004065318 0.7070835612040901
vn 0 -0.7071300004065318 0.7070835612040901
vn 0 -0.7071300004065318 0.7070835612040901
vn 0 -0.707202619107168 -0.7070109302747459
vn 0 -0.707202619107168 -0.7070109302747459
vn 0 -0.707202619107168 -0.7070109302747459
vn 2.363009937834519e-7 -0.7072008468475381 -0.7070127030103979
vn 2.363009937834519e-7 -0.7072008468475381 -0.7070127030103979
vn 2.363009937834519e-7 -0.7072008468475381 -0.7070127030103979
vn -3.3413561883479574e-7 0.9999999949997751 -0.00010000169045289127
vn -3.3413561883479574e-7 0.9999999949997751 -0.00010000169045289127
vn -3.3413561883479574e-7 0.9999999949997751 -0.00010000169045289127
vn 0.00025578397199199767 0.9999999551011102 0.00015611642113454361
vn 0.00025578397199199767 0.9999999551011102 0.00015611642113454361
vn 0.00025578397199199767 0.9999999551011102 0.00015611642113454361
g Scene
usemtl material0
f 1/1/1 3/2/2 2/3/3
f 1/4/4 4/5/5 3/6/6
f 5/7/7 6/8/8 7/9/9
f 5/10/10 8/11/11 6/12/12
f 9/13/13 10/14/14 11/15/15
f 9/16/16 12/17/17 10/18/18
f 13/19/19 14/20/20 15/21/21
f 13/22/22 16/23/23 14/24/24
f 17/25/25 18/26/26 19/27/27
f 17/28/28 20/29/29 18/30/30
f 21/31/31 22/32/32 23/33/33
f 21/34/34 24/35/35 22/36/36
