o Default
v -0.5 -0.000021753838154836558 -0.49994999170303345
v -0.5 0.00007824785279808566 0.5000500082969666
v -0.4375 -0.062421754002571106 0.43755000829696655
v -0.4375 -0.06252175569534302 -0.43744999170303345
v 0.4375 -0.06252142041921616 -0.43744999170303345
v 0.5 0.00007858199387555942 0.5000500082969666
v 0.4375 -0.062421418726444244 0.43755000829696655
v 0.5 -0.00002141970253433101 -0.49994999170303345
v -0.4375 -0.062421754002571106 0.43755000829696655
v 0.5 0.00007858199387555942 0.5000500082969666
v -0.5 0.00007824785279808566 0.5000500082969666
v 0.4375 -0.062421418726444244 0.43755000829696655
v -0.5 -0.000021753838154836558 -0.49994999170303345
v 0.4375 -0.06252142041921616 -0.43744999170303345
v -0.4375 -0.06252175569534302 -0.43744999170303345
v 0.5 -0.00002141970253433101 -0.49994999170303345
v -0.5 0.00007824785279808566 0.5000500082969666
v 0.5 -0.00002141970253433101 -0.49994999170303345
v -0.5 -0.000021753838154836558 -0.49994999170303345
v 0.5 0.00007858199387555942 0.5000500082969666
v -0.5 -0.000021753838154836558 -0.49994999170303345
v 0.5 0.00007858199387555942 0.5000500082969666
v -0.5 0.00007824785279808566 0.5000500082969666
v 0.5 -0.00002141970253433101 -0.49994999170303345
v -0.4375 -0.06252175569534302 -0.43744999170303345
v 0.4375 -0.062421418726444244 0.43755000829696655
v -0.4375 -0.062421754002571106 0.43755000829696655
v 0.4375 -0.06252142041921616 -0.43744999170303345
v -0.4375 -0.06252175569534302 -0.43744999170303345
v 0.5 -0.00002141970253433101 -0.49994999170303345
v -0.5 -0.000021753838154836558 -0.49994999170303345
v 0.4375 -0.06252142041921616 -0.43744999170303345
v 0.4375 -0.06252142041921616 -0.43744999170303345
v 0.5 0.00007858199387555942 0.5000500082969666
v 0.5 -0.00002141970253433101 -0.49994999170303345
v 0.4375 -0.062421418726444244 0.43755000829696655
v 0.4375 -0.062421418726444244 0.43755000829696655
v -0.5 0.00007824785279808566 0.5000500082969666
v 0.5 0.00007858199387555942 0.5000500082969666
v -0.4375 -0.062421754002571106 0.43755000829696655
v -0.4375 -0.062421754002571106 0.43755000829696655
v -0.5 -0.000021753838154836558 -0.49994999170303345
v -0.5 0.00007824785279808566 0.5000500082969666
v -0.4375 -0.06252233684062958 -0.43744999170303345
vt 0.75 0.875
vt 0.75390625 0.90625
vt 0.75 0.90625
vt 0.75 0.875
vt 0.75390625 0.875
vt 0.75390625 0.90625
vt 0.75 0.875
vt 0.75390625 0.90625
vt 0.75 0.90625
vt 0.75 0.875
vt 0.75390625 0.875
vt 0.75390625 0.90625
vt 0.75390625 0.904296875
vt 0.80859375 0.90625
vt 0.75390625 0.90625
vt 0.75390625 0.904296875
vt 0.80859375 0.904296875
vt 0.80859375 0.90625
vt 0.75390625 0.904296875
vt 0.80859375 0.90625
vt 0.75390625 0.90625
vt 0.75390625 0.904296875
vt 0.80859375 0.904296875
vt 0.80859375 0.90625
vt 0.25 0.9375
vt 0.3125 0.96875
vt 0.25 0.96875
vt 0.25 0.9375
vt 0.3125 0.9375
vt 0.3125 0.96875
vt 0.71875 0.953125
vt 0.75 0.96875
vt 0.71875 0.96875
vt 0.71875 0.953125
vt 0.75 0.953125
vt 0.75 0.96875
vt 0.81640625 0.876953125
vt 0.87109375 0.904296875
vt 0.81640625 0.904296875
vt 0.81640625 0.876953125
vt 0.87109375 0.876953125
vt 0.87109375 0.904296875
vt 0.8125 0.904296875
vt 0.875 0.90625
vt 0.8125 0.90625
vt 0.8125 0.904296875
vt 0.875 0.904296875
vt 0.875 0.90625
vt 0.8125 0.904296875
vt 0.875 0.90625
vt 0.8125 0.90625
vt 0.8125 0.904296875
vt 0.875 0.904296875
vt 0.875 0.90625
vt 0.8125 0.904296875
vt 0.875 0.90625
vt 0.8125 0.90625
vt 0.8125 0.904296875
vt 0.875 0.904296875
vt 0.875 0.90625
vt 0.8125 0.904296875
vt 0.875 0.90625
vt 0.8125 0.90625
vt 0.8125 0.904296875
vt 0.875 0.904296875
vt 0.875 0.90625
vn -0.7070714313269856 -0.7071421257431485 0.0000707154083183588
vn -0.7070714313269856 -0.7071421257431485 0.0000707154083183588
vn -0.7070714313269856 -0.7071421257431485 0.0000707154083183588
vn -0.7071471927041888 -0.7070663627415027 0.00008080895220140432
vn -0.7071471927041888 -0.7070663627415027 0.00008080895220140432
vn -0.7071471927041888 -0.7070663627415027 0.00008080895220140432
vn 0.7070663727033994 -0.7071471827423748 0.00008081818892928664
vn 0.7070663727033994 -0.7071471827423748 0.00008081818892928664
vn 0.7070663727033994 -0.7071471827423748 0.00008081818892928664
vn 0.7071421367595886 -0.7070714203101508 0.00007070834151396574
vn 0.7071421367595886 -0.7070714203101508 0.00007070834151396574
vn 0.7071421367595886 -0.7070714203101508 0.00007070834151396574
vn 2.3627337877334903e-7 -0.7071066525542755 0.7071069098187567
vn 2.3627337877334903e-7 -0.7071066525542755 0.7071069098187567
vn 2.3627337877334903e-7 -0.7071066525542755 0.7071069098187567
vn 2.709440764893048e-7 -0.7071069125838028 0.707106649789216
vn 2.709440764893048e-7 -0.7071069125838028 0.707106649789216
vn 2.709440764893048e-7 -0.7071069125838028 0.707106649789216
vn 2.7094397020672587e-7 -0.7071066352086807 -0.7071069271643322
vn 2.7094397020672587e-7 -0.7071066352086807 -0.7071069271643322
vn 2.7094397020672587e-7 -0.7071066352086807 -0.7071069271643322
vn 2.3626960121384272e-7 -0.7071068952671539 -0.7071066671058832
vn 2.3626960121384272e-7 -0.7071068952671539 -0.7071066671058832
vn 2.3626960121384272e-7 -0.7071068952671539 -0.7071066671058832
vn -3.3413561883479574e-7 0.9999999949997751 -0.00010000169045289127
vn -3.3413561883479574e-7 0.9999999949997751 -0.00010000169045289127
vn -3.3413561883479574e-7 0.9999999949997751 -0.00010000169045289127
vn -3.3414107580297896e-7 0.9999999949997747 -0.00010000169590985941
vn -3.3414107580297896e-7 0.9999999949997747 -0.00010000169590985941
vn -3.3414107580297896e-7 0.9999999949997747 -0.00010000169590985941
vn 3.341410758029791e-7 -0.9999999949997751 0.00010000169045289127
vn 3.341410758029791e-7 -0.9999999949997751 0.00010000169045289127
vn 3.341410758029791e-7 -0.9999999949997751 0.00010000169045289127
vn 3.3413561883479564e-7 -0.9999999949997747 0.00010000169590985941
vn 3.3413561883479564e-7 -0.9999999949997747 0.00010000169590985941
vn 3.3413561883479564e-7 -0.9999999949997747 0.00010000169590985941
vn 3.831727139107602e-7 -0.9999999934690933 0.00011428764813578274
vn 3.831727139107602e-7 -0.9999999934690933 0.00011428764813578274
vn 3.831727139107602e-7 -0.9999999934690933 0.00011428764813578274
vn 3.831727139107602e-7 -0.9999999934690933 0.00011428764813578274
vn 3.831727139107602e-7 -0.9999999934690933 0.00011428764813578274
vn 3.831727139107602e-7 -0.9999999934690933 0.00011428764813578274
vn -2.3626952011203098e-7 0.7071066525459151 0.7071069098271171
vn -2.3626952011203098e-7 0.7071066525459151 0.7071069098271171
vn -2.3626952011203098e-7 0.7071066525459151 0.7071069098271171
vn -2.7094407649719037e-7 0.7071069126043823 0.7071066497686366
vn -2.7094407649719037e-7 0.7071069126043823 0.7071066497686366
vn -2.7094407649719037e-7 0.7071069126043823 0.7071066497686366
vn -0.7071421367595886 0.7070714203101508 -0.00007070834151396574
vn -0.7071421367595886 0.7070714203101508 -0.00007070834151396574
vn -0.7071421367595886 0.7070714203101508 -0.00007070834151396574
vn -0.7070663727033994 0.7071471827423748 -0.00008081818892928664
vn -0.7070663727033994 0.7071471827423748 -0.00008081818892928664
vn -0.7070663727033994 0.7071471827423748 -0.00008081818892928664
vn -2.3627345986745993e-7 0.7071068952485037 -0.7071066671245334
vn -2.3627345986745993e-7 0.7071068952485037 -0.7071066671245334
vn -2.3627345986745993e-7 0.7071068952485037 -0.7071066671245334
vn -2.7094397021066865e-7 0.7071066352189705 -0.7071069271540426
vn -2.7094397021066865e-7 0.7071066352189705 -0.7071069271540426
vn -2.7094397021066865e-7 0.7071066352189705 -0.7071069271540426
vn 0.7070714313269856 0.7071421257431485 -0.0000707154083183588
vn 0.7070714313269856 0.7071421257431485 -0.0000707154083183588
vn 0.7070714313269856 0.7071421257431485 -0.0000707154083183588
vn 0.7071507143193801 0.7070628406524075 -0.00008127815679829037
vn 0.7071507143193801 0.7070628406524075 -0.00008127815679829037
vn 0.7071507143193801 0.7070628406524075 -0.00008127815679829037
g Scene
usemtl material0
f 1/1/1 3/2/2 2/3/3
f 1/4/4 4/5/5 3/6/6
f 5/7/7 6/8/8 7/9/9
f 5/10/10 8/11/11 6/12/12
f 9/13/13 10/14/14 11/15/15
f 9/16/16 12/17/17 10/18/18
f 13/19/19 14/20/20 15/21/21
f 13/22/22 16/23/23 14/24/24
f 17/25/25 18/26/26 19/27/27
f 17/28/28 20/29/29 18/30/30
f 21/31/31 22/32/32 23/33/33
f 21/34/34 24/35/35 22/36/36
f 25/37/37 26/38/38 27/39/39
f 25/40/40 28/41/41 26/42/42
f 29/43/43 30/44/44 31/45/45
f 29/46/46 32/47/47 30/48/48
f 33/49/49 34/50/50 35/51/51
f 33/52/52 36/53/53 34/54/54
f 37/55/55 38/56/56 39/57/57
f 37/58/58 40/59/59 38/60/60
f 41/61/61 42/62/62 43/63/63
f 41/64/64 44/65/65 42/66/66
