o Default
v 0.375 -0.5 0.5
v 0.375 0.5 0.5
v 0.5 0.5 0.375
v 0.5 -0.5 0.375
v -0.5 -0.5 0.375
v -0.375 0.5 0.5
v -0.5 0.5 0.375
v -0.375 -0.5 0.5
v -0.5 -0.5 -0.375
v -0.5 0.5 0.375
v -0.5 0.5 -0.375
v -0.5 -0.5 0.375
v 0.5 -0.5 -0.375
v 0.375 0.5 -0.5
v 0.5 0.5 -0.375
v 0.375 -0.5 -0.5
v -0.375 -0.5 -0.5
v -0.5 0.5 -0.375
v -0.375 0.5 -0.5
v -0.5 -0.5 -0.375
v 0.5 -0.5 0.375
v 0.5 0.5 -0.375
v 0.5 0.5 0.375
v 0.5 -0.5 -0.375
v -0.375 -0.5 -0.5
v 0.375 -0.5 0.5
v -0.375 -0.5 0.5
v 0.375 -0.5 -0.5
v -0.5 -0.5 -0.375
v -0.375 -0.5 0.5
v -0.5 -0.5 0.375
v -0.375 -0.5 -0.5
v 0.375 -0.5 -0.5
v 0.5 -0.5 0.375
v 0.375 -0.5 0.5
v 0.5 -0.5 -0.375
v -0.25 0.3750452399253845 0.5000874996185303
v 0.25 0.37505775690078735 0.3750874996185303
v -0.25 0.37505775690078735 0.3750874996185303
v 0.25 0.3750452399253845 0.5000874996185303
v -0.25 0.37505775690078735 0.3750874996185303
v 0.25 0.500101625919342 0.37505000829696655
v -0.25 0.500101625919342 0.37505000829696655
v 0.25 0.37505775690078735 0.3750874996185303
v -0.25 0.375063419342041 -0.3749000132083893
v 0.25 0.37507593631744385 -0.4999000132083893
v -0.25 0.37507593631744385 -0.4999000132083893
v 0.25 0.375063419342041 -0.3749000132083893
v 0.25 0.375063419342041 -0.3749000132083893
v -0.25 0.500101625919342 -0.37494999170303345
v 0.25 0.500101625919342 -0.37494999170303345
v -0.25 0.375063419342041 -0.3749000132083893
v 0.25 0.37507593631744385 -0.4999000132083893
v 0.25 0.500101625919342 -0.37494999170303345
v 0.25 0.500101625919342 -0.49994999170303345
v 0.25 0.375063419342041 -0.3749000132083893
v -0.25 0.375063419342041 -0.3749000132083893
v -0.25 0.500101625919342 -0.49994999170303345
v -0.25 0.500101625919342 -0.37494999170303345
v -0.25 0.37507593631744385 -0.4999000132083893
v -0.25 0.3750452399253845 0.5000874996185303
v -0.25 0.500101625919342 0.37505000829696655
v -0.25 0.500101625919342 0.5000500082969666
v -0.25 0.37505775690078735 0.3750874996185303
v 0.25 0.37505775690078735 0.3750874996185303
v 0.25 0.500101625919342 0.5000500082969666
v 0.25 0.500101625919342 0.37505000829696655
v 0.25 0.3750452399253845 0.5000874996185303
v -0.25 0.4375571310520172 0.4375999867916107
v 0.25 0.43756335973739624 0.5001000165939331
v -0.25 0.43756335973739624 0.5001000165939331
v 0.25 0.4375571310520172 0.4375999867916107
v 0.25 0.4375571310520172 0.4375999867916107
v -0.25 0.500101625919342 0.43755000829696655
v 0.25 0.500101625919342 0.43755000829696655
v -0.25 0.4375571310520172 0.4375999867916107
v -0.25 0.43755367398262024 -0.4999000132083893
v 0.25 0.43755993247032166 -0.4374000132083893
v -0.25 0.43755993247032166 -0.4374000132083893
v 0.25 0.43755367398262024 -0.4999000132083893
v -0.25 0.43755993247032166 -0.4374000132083893
v 0.25 0.500101625919342 -0.43744999170303345
v -0.25 0.500101625919342 -0.43744999170303345
v 0.25 0.43755993247032166 -0.4374000132083893
v 0.375 0.5 0.5
v 0.5 0.5 -0.375
v 0.375 0.5 -0.5
v 0.5 0.5 0.375
v -0.5 0.5 0.375
v -0.375 0.5 -0.5
v -0.5 0.5 -0.375
v -0.375 0.5 0.5
v -0.375 0.5 0.5
v -0.25 0.500101625919342 -0.49994999170303345
v -0.375 0.5 -0.5
v -0.25 0.500101625919342 0.5000500082969666
v 0.25 0.500101625919342 0.5000500082969666
v 0.375 0.5 -0.5
v 0.25 0.500101625919342 -0.49994999170303345
v 0.375 0.5 0.5
v -0.25 0.500101625919342 0.37505000829696655
v 0.25 0.500101625919342 -0.37494999170303345
v -0.25 0.500101625919342 -0.37494999170303345
v 0.25 0.500101625919342 0.37505000829696655
v -0.25 0.500101625919342 -0.43744999170303345
v 0.25 0.500101625919342 -0.49994999170303345
v -0.25 0.500101625919342 -0.49994999170303345
v 0.25 0.500101625919342 -0.43744999170303345
v -0.25 0.500101625919342 0.5000500082969666
v 0.25 0.500101625919342 0.43755000829696655
v -0.25 0.500101625919342 0.43755000829696655
v 0.25 0.500101625919342 0.5000500082969666
v -0.375 -0.5 0.5
v -0.25 0.500101625919342 0.5000500082969666
v -0.375 0.5 0.5
v -0.25 -0.5 0.5
v 0.25 -0.5 0.5
v 0.375 0.5 0.5
v 0.25 0.500101625919342 0.5000500082969666
v 0.375 -0.5 0.5
v -0.25 -0.5 0.5
v 0.25 0.3750452399253845 0.5000874996185303
v -0.25 0.3750452399253845 0.5000874996185303
v 0.25 -0.5 0.5
v -0.25 0.43756335973739624 0.5001000165939331
v 0.25 0.500101625919342 0.5000500082969666
v -0.25 0.500101625919342 0.5000500082969666
v 0.25 0.43756335973739624 0.5001000165939331
v 0.375 -0.5 -0.5
v 0.25 0.500101625919342 -0.49994999170303345
v 0.375 0.5 -0.5
v 0.25 -0.5 -0.5
v 0.25 0.43755367398262024 -0.4999000132083893
v -0.25 0.500101625919342 -0.49994999170303345
v 0.25 0.500101625919342 -0.49994999170303345
v -0.25 0.43755367398262024 -0.4999000132083893
v -0.25 -0.5 -0.5
v -0.375 0.5 -0.5
v -0.25 0.500101625919342 -0.49994999170303345
v -0.375 -0.5 -0.5
v 0.25 -0.5 -0.5
v -0.25 0.37507593631744385 -0.4999000132083893
v 0.25 0.37507593631744385 -0.4999000132083893
v -0.25 -0.5 -0.5
vt 0 0.5
vt 0.0625 1
vt 0 1
vt 0 0.5
vt 0.0625 0.5
vt 0.0625 1
vt 0 0.5
vt 0.0625 1
vt 0 1
vt 0 0.5
vt 0.0625 0.5
vt 0.0625 1
vt 0.5625 0.5
vt 0.9375 1
vt 0.5625 1
vt 0.5625 0.5
vt 0.9375 0.5
vt 0.9375 1
vt 0 0.5
vt 0.0625 1
vt 0 1
vt 0 0.5
vt 0.0625 0.5
vt 0.0625 1
vt 0 0.5
vt 0.0625 1
vt 0 1
vt 0 0.5
vt 0.0625 0.5
vt 0.0625 1
vt 0.5625 0.5
vt 0.9375 1
vt 0.5625 1
vt 0.5625 0.5
vt 0.9375 0.5
vt 0.9375 1
vt 0.5625 0
vt 0.9375 0.5
vt 0.5625 0.5
vt 0.5625 0
vt 0.9375 0
vt 0.9375 0.5
vt 0.5625 0
vt 0.625 0.5
vt 0.5625 0.5
vt 0.5625 0
vt 0.625 0
vt 0.625 0.5
vt 0.5625 0
vt 0.625 0.5
vt 0.5625 0.5
vt 0.5625 0
vt 0.625 0
vt 0.625 0.5
vt 0.125 0.875
vt 0.375 0.9375
vt 0.125 0.9375
vt 0.125 0.875
vt 0.375 0.875
vt 0.375 0.9375
vt 0.125 0.875
vt 0.375 0.9375
vt 0.125 0.9375
vt 0.125 0.875
vt 0.375 0.875
vt 0.375 0.9375
vt 0.125 0.875
vt 0.375 0.9375
vt 0.125 0.9375
vt 0.125 0.875
vt 0.375 0.875
vt 0.375 0.9375
vt 0.125 0.875
vt 0.375 0.9375
vt 0.125 0.9375
vt 0.125 0.875
vt 0.375 0.875
vt 0.375 0.9375
vt 0.0625 0.9375
vt 0.125 1
vt 0.0625 1
vt 0.0625 0.9375
vt 0.125 0.9375
vt 0.125 1
vt 0.0625 0.9375
vt 0.125 1
vt 0.0625 1
vt 0.0625 0.9375
vt 0.125 0.9375
vt 0.125 1
vt 0.0625 0.9375
vt 0.125 1
vt 0.0625 1
vt 0.0625 0.9375
vt 0.125 0.9375
vt 0.125 1
vt 0.0625 0.9375
vt 0.125 1
vt 0.0625 1
vt 0.0625 0.9375
vt 0.125 0.9375
vt 0.125 1
vt 0.125 0.96875
vt 0.375 1
vt 0.125 1
vt 0.125 0.96875
vt 0.375 0.96875
vt 0.375 1
vt 0.125 0.96875
vt 0.375 1
vt 0.125 1
vt 0.125 0.96875
vt 0.375 0.96875
vt 0.375 1
vt 0.125 0.96875
vt 0.375 1
vt 0.125 1
vt 0.125 0.96875
vt 0.375 0.96875
vt 0.375 1
vt 0.125 0.96875
vt 0.375 1
vt 0.125 1
vt 0.125 0.96875
vt 0.375 0.96875
vt 0.375 1
vt 0.0625 0
vt 0.125 0.5
vt 0.0625 0.5
vt 0.0625 0
vt 0.125 0
vt 0.125 0.5
vt 0.0625 0
vt 0.125 0.5
vt 0.0625 0.5
vt 0.0625 0
vt 0.125 0
vt 0.125 0.5
vt 0.0625 0
vt 0.125 0.5
vt 0.0625 0.5
vt 0.0625 0
vt 0.125 0
vt 0.125 0.5
vt 0.0625 0
vt 0.125 0.5
vt 0.0625 0.5
vt 0.0625 0
vt 0.125 0
vt 0.125 0.5
vt 0.125 0.0625
vt 0.375 0.4375
vt 0.125 0.4375
vt 0.125 0.0625
vt 0.375 0.0625
vt 0.375 0.4375
vt 0.125 0.46875
vt 0.375 0.5
vt 0.125 0.5
vt 0.125 0.46875
vt 0.375 0.46875
vt 0.375 0.5
vt 0.125 0
vt 0.375 0.03125
vt 0.125 0.03125
vt 0.125 0
vt 0.375 0
vt 0.375 0.03125
vt 0.0625 0.5
vt 0.125 1
vt 0.0625 1
vt 0.0625 0.5
vt 0.125 0.5
vt 0.125 1
vt 0.375 0.5
vt 0.4375 1
vt 0.375 1
vt 0.375 0.5
vt 0.4375 0.5
vt 0.4375 1
vt 0.125 0.5
vt 0.375 0.9375
vt 0.125 0.9375
vt 0.125 0.5
vt 0.375 0.5
vt 0.375 0.9375
vt 0.125 0.96875
vt 0.375 1
vt 0.125 1
vt 0.125 0.96875
vt 0.375 0.96875
vt 0.375 1
vt 0.0625 0.5
vt 0.125 1
vt 0.0625 1
vt 0.0625 0.5
vt 0.125 0.5
vt 0.125 1
vt 0.125 0.96875
vt 0.375 1
vt 0.125 1
vt 0.125 0.96875
vt 0.375 0.96875
vt 0.375 1
vt 0.375 0.5
vt 0.4375 1
vt 0.375 1
vt 0.375 0.5
vt 0.4375 0.5
vt 0.4375 1
vt 0.125 0.5
vt 0.375 0.9375
vt 0.125 0.9375
vt 0.125 0.5
vt 0.375 0.5
vt 0.375 0.9375
vn 0.7071067811865475 0 0.7071067811865475
vn 0.7071067811865475 0 0.7071067811865475
vn 0.7071067811865475 0 0.7071067811865475
vn 0.7071067811865475 0 0.7071067811865475
vn 0.7071067811865475 0 0.7071067811865475
vn 0.7071067811865475 0 0.7071067811865475
vn -0.7071067811865475 0 0.7071067811865475
vn -0.7071067811865475 0 0.7071067811865475
vn -0.7071067811865475 0 0.7071067811865475
vn -0.7071067811865475 0 0.7071067811865475
vn -0.7071067811865475 0 0.7071067811865475
vn -0.7071067811865475 0 0.7071067811865475
vn -1 0 0
vn -1 0 0
vn -1 0 0
vn -1 0 0
vn -1 0 0
vn -1 0 0
vn 0.7071067811865475 0 -0.7071067811865475
vn 0.7071067811865475 0 -0.7071067811865475
vn 0.7071067811865475 0 -0.7071067811865475
vn 0.7071067811865475 0 -0.7071067811865475
vn 0.7071067811865475 0 -0.7071067811865475
vn 0.7071067811865475 0 -0.7071067811865475
vn -0.7071067811865475 0 -0.7071067811865475
vn -0.7071067811865475 0 -0.7071067811865475
vn -0.7071067811865475 0 -0.7071067811865475
vn -0.7071067811865475 0 -0.7071067811865475
vn -0.7071067811865475 0 -0.7071067811865475
vn -0.7071067811865475 0 -0.7071067811865475
vn 1 0 0
vn 1 0 0
vn 1 0 0
vn 1 0 0
vn 1 0 0
vn 1 0 0
vn 0 -1 0
vn 0 -1 0
vn 0 -1 0
vn 0 -1 0
vn 0 -1 0
vn 0 -1 0
vn 0 -1 0
vn 0 -1 0
vn 0 -1 0
vn 0 -1 0
vn 0 -1 0
vn 0 -1 0
vn 0 -1 0
vn 0 -1 0
vn 0 -1 0
vn 0 -1 0
vn 0 -1 0
vn 0 -1 0
vn 0 0.9999999949864105 0.00010013580272061643
vn 0 0.9999999949864105 0.00010013580272061643
vn 0 0.9999999949864105 0.00010013580272061643
vn 0 0.9999999949864105 0.00010013580272061643
vn 0 0.9999999949864105 0.00010013580272061643
vn 0 0.9999999949864105 0.00010013580272061643
vn 0 0.00029982533468323814 0.9999999550523833
vn 0 0.00029982533468323814 0.9999999550523833
vn 0 0.00029982533468323814 0.9999999550523833
vn 0 0.00029982533468323814 0.9999999550523833
vn 0 0.00029982533468323814 0.9999999550523833
vn 0 0.00029982533468323814 0.9999999550523833
vn 0 0.9999999949864105 0.00010013580272061643
vn 0 0.9999999949864105 0.00010013580272061643
vn 0 0.9999999949864105 0.00010013580272061643
vn 0 0.9999999949864105 0.00010013580272061643
vn 0 0.9999999949864105 0.00010013580272061643
vn 0 0.9999999949864105 0.00010013580272061643
vn 0 -0.0003997057541037896 -0.9999999201176518
vn 0 -0.0003997057541037896 -0.9999999201176518
vn 0 -0.0003997057541037896 -0.9999999201176518
vn 0 -0.0003997057541037896 -0.9999999201176518
vn 0 -0.0003997057541037896 -0.9999999201176518
vn 0 -0.0003997057541037896 -0.9999999201176518
vn -1 0 0
vn -1 0 0
vn -1 0 0
vn -1 0 0
vn -1 0 0
vn -1 0 0
vn 1 0 0
vn 1 0 0
vn 1 0 0
vn 1 0 0
vn 1 0 0
vn 1 0 0
vn 1 0 0
vn 1 0 0
vn 1 0 0
vn 1 0 0
vn 1 0 0
vn 1 0 0
vn -1 0 0
vn -1 0 0
vn -1 0 0
vn -1 0 0
vn -1 0 0
vn -1 0 0
vn 0 -0.9999999950340501 0.00009965891804847642
vn 0 -0.9999999950340501 0.00009965891804847642
vn 0 -0.9999999950340501 0.00009965891804847642
vn 0 -0.9999999950340501 0.00009965891804847642
vn 0 -0.9999999950340501 0.00009965891804847642
vn 0 -0.9999999950340501 0.00009965891804847642
vn 0 -0.000799086774840146 -0.9999996807301121
vn 0 -0.000799086774840146 -0.9999996807301121
vn 0 -0.000799086774840146 -0.9999996807301121
vn 0 -0.000799086774840146 -0.9999996807301121
vn 0 -0.000799086774840146 -0.9999996807301121
vn 0 -0.000799086774840146 -0.9999996807301121
vn 0 -0.9999999949864105 0.00010013580272061643
vn 0 -0.9999999949864105 0.00010013580272061643
vn 0 -0.9999999949864105 0.00010013580272061643
vn 0 -0.9999999949864105 0.00010013580272061643
vn 0 -0.9999999949864105 0.00010013580272061643
vn 0 -0.9999999949864105 0.00010013580272061643
vn 0 0.0007991225681608079 0.9999996807015096
vn 0 0.0007991225681608079 0.9999996807015096
vn 0 0.0007991225681608079 0.9999996807015096
vn 0 0.0007991225681608079 0.9999996807015096
vn 0 0.0007991225681608079 0.9999996807015096
vn 0 0.0007991225681608079 0.9999996807015096
vn 0 1 0
vn 0 1 0
vn 0 1 0
vn 0 1 0
vn 0 1 0
vn 0 1 0
vn 0 1 0
vn 0 1 0
vn 0 1 0
vn 0 1 0
vn 0 1 0
vn 0 1 0
vn -0.0008130070860452709 0.9999996695096844 0
vn -0.0008130070860452709 0.9999996695096844 0
vn -0.0008130070860452709 0.9999996695096844 0
vn -0.0008130070860452709 0.9999996695096844 0
vn -0.0008130070860452709 0.9999996695096844 0
vn -0.0008130070860452709 0.9999996695096844 0
vn 0.0008130070860452709 0.9999996695096844 0
vn 0.0008130070860452709 0.9999996695096844 0
vn 0.0008130070860452709 0.9999996695096844 0
vn 0.0008130070860452709 0.9999996695096844 0
vn 0.0008130070860452709 0.9999996695096844 0
vn 0.0008130070860452709 0.9999996695096844 0
vn 0 1 0
vn 0 1 0
vn 0 1 0
vn 0 1 0
vn 0 1 0
vn 0 1 0
vn 0 1 0
vn 0 1 0
vn 0 1 0
vn 0 1 0
vn 0 1 0
vn 0 1 0
vn 0 1 0
vn 0 1 0
vn 0 1 0
vn 0 1 0
vn 0 1 0
vn 0 1 0
vn -0.00040006634371649285 0 0.999999919973457
vn -0.00040006634371649285 0 0.999999919973457
vn -0.00040006634371649285 0 0.999999919973457
vn 0 -0.0000500032152813113 0.9999999987498392
vn 0 -0.0000500032152813113 0.9999999987498392
vn 0 -0.0000500032152813113 0.9999999987498392
vn 0.0004000256902443205 -0.00005000321128054006 0.9999999187395596
vn 0.0004000256902443205 -0.00005000321128054006 0.9999999187395596
vn 0.0004000256902443205 -0.00005000321128054006 0.9999999187395596
vn 0 0 1
vn 0 0 1
vn 0 0 1
vn 0 -0.00009999439354733879 0.9999999950005606
vn 0 -0.00009999439354733879 0.9999999950005606
vn 0 -0.00009999439354733879 0.9999999950005606
vn 0 -0.00009999439354733879 0.9999999950005606
vn 0 -0.00009999439354733879 0.9999999950005606
vn 0 -0.00009999439354733879 0.9999999950005606
vn 0 0.0007996429071552187 0.9999996802855594
vn 0 0.0007996429071552187 0.9999996802855594
vn 0 0.0007996429071552187 0.9999996802855594
vn 0 0.0007996429071552187 0.9999996802855594
vn 0 0.0007996429071552187 0.9999996802855594
vn 0 0.0007996429071552187 0.9999996802855594
vn -0.00040006634371649285 0 -0.999999919973457
vn -0.00040006634371649285 0 -0.999999919973457
vn -0.00040006634371649285 0 -0.999999919973457
vn 0 0.0000500032152813113 -0.9999999987498392
vn 0 0.0000500032152813113 -0.9999999987498392
vn 0 0.0000500032152813113 -0.9999999987498392
vn 0 -0.0007990426087789805 -0.9999996807654037
vn 0 -0.0007990426087789805 -0.9999996807654037
vn 0 -0.0007990426087789805 -0.9999996807654037
vn 0 -0.0007990426087789805 -0.9999996807654037
vn 0 -0.0007990426087789805 -0.9999996807654037
vn 0 -0.0007990426087789805 -0.9999996807654037
vn 0.0004000256902443205 0.00005000321128054006 -0.9999999187395596
vn 0.0004000256902443205 0.00005000321128054006 -0.9999999187395596
vn 0.0004000256902443205 0.00005000321128054006 -0.9999999187395596
vn 0 0 -1
vn 0 0 -1
vn 0 0 -1
vn 0 0.00011426070219551465 -0.9999999934722459
vn 0 0.00011426070219551465 -0.9999999934722459
vn 0 0.00011426070219551465 -0.9999999934722459
vn 0 0.00011426070219551465 -0.9999999934722459
vn 0 0.00011426070219551465 -0.9999999934722459
vn 0 0.00011426070219551465 -0.9999999934722459
g Scene
usemtl material0
f 1/1/1 3/2/2 2/3/3
f 1/4/4 4/5/5 3/6/6
f 5/7/7 6/8/8 7/9/9
f 5/10/10 8/11/11 6/12/12
f 9/13/13 10/14/14 11/15/15
f 9/16/16 12/17/17 10/18/18
f 13/19/19 14/20/20 15/21/21
f 13/22/22 16/23/23 14/24/24
f 17/25/25 18/26/26 19/27/27
f 17/28/28 20/29/29 18/30/30
f 21/31/31 22/32/32 23/33/33
f 21/34/34 24/35/35 22/36/36
f 25/37/37 26/38/38 27/39/39
f 25/40/40 28/41/41 26/42/42
f 29/43/43 30/44/44 31/45/45
f 29/46/46 32/47/47 30/48/48
f 33/49/49 34/50/50 35/51/51
f 33/52/52 36/53/53 34/54/54
f 37/55/55 38/56/56 39/57/57
f 37/58/58 40/59/59 38/60/60
f 41/61/61 42/62/62 43/63/63
f 41/64/64 44/65/65 42/66/66
f 45/67/67 46/68/68 47/69/69
f 45/70/70 48/71/71 46/72/72
f 49/73/73 50/74/74 51/75/75
f 49/76/76 52/77/77 50/78/78
f 53/79/79 54/80/80 55/81/81
f 53/82/82 56/83/83 54/84/84
f 57/85/85 58/86/86 59/87/87
f 57/88/88 60/89/89 58/90/90
f 61/91/91 62/92/92 63/93/93
f 61/94/94 64/95/95 62/96/96
f 65/97/97 66/98/98 67/99/99
f 65/100/100 68/101/101 66/102/102
f 69/103/103 70/104/104 71/105/105
f 69/106/106 72/107/107 70/108/108
f 73/109/109 74/110/110 75/111/111
f 73/112/112 76/113/113 74/114/114
f 77/115/115 78/116/116 79/117/117
f 77/118/118 80/119/119 78/120/120
f 81/121/121 82/122/122 83/123/123
f 81/124/124 84/125/125 82/126/126
f 85/127/127 86/128/128 87/129/129
f 85/130/130 88/131/131 86/132/132
f 89/133/133 90/134/134 91/135/135
f 89/136/136 92/137/137 90/138/138
f 93/139/139 94/140/140 95/141/141
f 93/142/142 96/143/143 94/144/144
f 97/145/145 98/146/146 99/147/147
f 97/148/148 100/149/149 98/150/150
f 101/151/151 102/152/152 103/153/153
f 101/154/154 104/155/155 102/156/156
f 105/157/157 106/158/158 107/159/159
f 105/160/160 108/161/161 106/162/162
f 109/163/163 110/164/164 111/165/165
f 109/166/166 112/167/167 110/168/168
f 113/169/169 114/170/170 115/171/171
f 113/172/172 116/173/173 114/174/174
f 117/175/175 118/176/176 119/177/177
f 117/178/178 120/179/179 118/180/180
f 121/181/181 122/182/182 123/183/183
f 121/184/184 124/185/185 122/186/186
f 125/187/187 126/188/188 127/189/189
f 125/190/190 128/191/191 126/192/192
f 129/193/193 130/194/194 131/195/195
f 129/196/196 132/197/197 130/198/198
f 133/199/199 134/200/200 135/201/201
f 133/202/202 136/203/203 134/204/204
f 137/205/205 138/206/206 139/207/207
f 137/208/208 140/209/209 138/210/210
f 141/211/211 142/212/212 143/213/213
f 141/214/214 144/215/215 142/216/216
