o Default
v -0.75 -1.5000338554382324 -0.24995000660419464
v -0.75 -1.499983787536621 0.25005000829696655
v 0.75 -1.499983787536621 0.25005000829696655
v 0.75 -1.5000338554382324 -0.24995000660419464
v -0.75 1.499998688697815 0.2500999867916107
v 0.75 1.5000487565994263 -0.2498999983072281
v -0.75 1.5000487565994263 -0.2498999983072281
v 0.75 1.499998688697815 0.2500999867916107
v -0.75 0.49999868869781494 -0.2498999983072281
v -0.75 1.499998688697815 0.2500999867916107
v -0.75 1.5000487565994263 -0.2498999983072281
v -0.75 0.49999868869781494 0.2500999867916107
v -0.75 -1.5000338554382324 -0.24995000660419464
v -0.75 -0.5000013113021851 0.2500999867916107
v -0.75 -0.5000013113021851 -0.2498999983072281
v -0.75 -1.499983787536621 0.25005000829696655
v -0.5 -0.25000131130218506 -0.2498999983072281
v -0.5 0.24999868869781494 0.2500999867916107
v -0.5 0.24999868869781494 -0.2498999983072281
v -0.5 -0.25000131130218506 0.2500999867916107
v -0.5 0.24999868869781494 -0.2498999983072281
v -0.75 0.49999868869781494 0.2500999867916107
v -0.75 0.49999868869781494 -0.2498999983072281
v -0.5 0.24999868869781494 0.2500999867916107
v -0.75 -0.5000013113021851 -0.2498999983072281
v -0.5 -0.25000131130218506 0.2500999867916107
v -0.5 -0.25000131130218506 -0.2498999983072281
v -0.75 -0.5000013113021851 0.2500999867916107
v 0.75 -1.5000338554382324 -0.24995000660419464
v -0.5 1.5 -0.25
v 0.75 1.5000487565994263 -0.2498999983072281
v -0.5 -1.5 -0.25
v -0.5 0.24999868869781494 -0.2498999983072281
v -0.75 1.5000487565994263 -0.2498999983072281
v -0.5 1.5 -0.25
v -0.75 0.49999868869781494 -0.2498999983072281
v -0.5 -1.5 -0.25
v -0.75 -0.5000013113021851 -0.2498999983072281
v -0.5 -0.25000131130218506 -0.2498999983072281
v -0.75 -1.5000338554382324 -0.24995000660419464
v -0.5 -1.5 0.25
v 0.75 1.499998688697815 0.2500999867916107
v -0.5 1.5 0.25
v 0.75 -1.499983787536621 0.25005000829696655
v -0.75 -1.499983787536621 0.25005000829696655
v -0.5 -0.25000131130218506 0.2500999867916107
v -0.75 -0.5000013113021851 0.2500999867916107
v -0.5 -1.5 0.25
v -0.75 0.49999868869781494 0.2500999867916107
v -0.5 1.5 0.25
v -0.75 1.499998688697815 0.2500999867916107
v -0.5 0.24999862909317017 0.2501000165939331
vt 0 0.921875
vt 0.0625 0.9375
vt 0 0.9375
vt 0 0.921875
vt 0.0625 0.921875
vt 0.0625 0.9375
vt 0 0.921875
vt 0.0625 0.9375
vt 0 0.9375
vt 0 0.921875
vt 0.0625 0.921875
vt 0.0625 0.9375
vt 0 0.90625
vt 0.03125 0.9375
vt 0 0.9375
vt 0 0.90625
vt 0.03125 0.90625
vt 0.03125 0.9375
vt 0 0.90625
vt 0.03125 0.9375
vt 0 0.9375
vt 0 0.90625
vt 0.03125 0.90625
vt 0.03125 0.9375
vt 0 0.921875
vt 0.03125 0.9375
vt 0 0.9375
vt 0 0.921875
vt 0.03125 0.921875
vt 0.03125 0.9375
vt 0 0.9296875
vt 0.03125 0.9375
vt 0 0.9375
vt 0 0.9296875
vt 0.03125 0.9296875
vt 0.03125 0.9375
vt 0 0.9296875
vt 0.03125 0.9375
vt 0 0.9375
vt 0 0.9296875
vt 0.03125 0.9296875
vt 0.03125 0.9375
vt 0.40625 0.6875
vt 0.484375 0.78125
vt 0.40625 0.78125
vt 0.40625 0.6875
vt 0.484375 0.6875
vt 0.484375 0.78125
vt 0.484375 0.7421875
vt 0.5 0.78125
vt 0.484375 0.78125
vt 0.484375 0.7421875
vt 0.5 0.75
vt 0.5 0.78125
vt 0.484375 0.6875
vt 0.5 0.71875
vt 0.484375 0.7265625
vt 0.484375 0.6875
vt 0.5 0.6875
vt 0.5 0.71875
vt 0.515625 0.78125
vt 0.59375 0.875
vt 0.515625 0.875
vt 0.515625 0.78125
vt 0.59375 0.78125
vt 0.59375 0.875
vt 0.5 0.78125
vt 0.515625 0.8203125
vt 0.5 0.8125
vt 0.5 0.78125
vt 0.515625 0.78125
vt 0.515625 0.8203125
vt 0.5 0.84375
vt 0.515625 0.875
vt 0.5 0.875
vt 0.5 0.84375
vt 0.515625 0.8359375
vt 0.515625 0.875
vn 0 -0.9999999949864108 0.00010013579973633708
vn 0 -0.9999999949864108 0.00010013579973633708
vn 0 -0.9999999949864108 0.00010013579973633708
vn 0 -0.9999999949864108 0.00010013579973633708
vn 0 -0.9999999949864108 0.00010013579973633708
vn 0 -0.9999999949864108 0.00010013579973633708
vn 0 0.9999999949864102 0.00010013580570489598
vn 0 0.9999999949864102 0.00010013580570489598
vn 0 0.9999999949864102 0.00010013580570489598
vn 0 0.9999999949864102 0.00010013580570489598
vn 0 0.9999999949864102 0.00010013580570489598
vn 0 0.9999999949864102 0.00010013580570489598
vn -1 0 0
vn -1 0 0
vn -1 0 0
vn -1 0 0
vn -1 0 0
vn -1 0 0
vn -1 0 0
vn -1 0 0
vn -1 0 0
vn -1 0 0
vn -1 0 0
vn -1 0 0
vn -1 0 0
vn -1 0 0
vn -1 0 0
vn -1 0 0
vn -1 0 0
vn -1 0 0
vn -0.7071067811865476 -0.7071067811865476 0
vn -0.7071067811865476 -0.7071067811865476 0
vn -0.7071067811865476 -0.7071067811865476 0
vn -0.7071067811865476 -0.7071067811865476 0
vn -0.7071067811865476 -0.7071067811865476 0
vn -0.7071067811865476 -0.7071067811865476 0
vn -0.7071067811865476 0.7071067811865476 0
vn -0.7071067811865476 0.7071067811865476 0
vn -0.7071067811865476 0.7071067811865476 0
vn -0.7071067811865476 0.7071067811865476 0
vn -0.7071067811865476 0.7071067811865476 0
vn -0.7071067811865476 0.7071067811865476 0
vn 0.00008000070377244492 0.000016668973247243407 -0.9999999966610165
vn 0.00008000070377244492 0.000016668973247243407 -0.9999999966610165
vn 0.00008000070377244492 0.000016668973247243407 -0.9999999966610165
vn 0.00003999471661229979 0 -0.9999999992002114
vn 0.00003999471661229979 0 -0.9999999992002114
vn 0.00003999471661229979 0 -0.9999999992002114
vn -0.00040002234016172554 -0.0000800012636360279 -0.9999999167909591
vn -0.00040002234016172554 -0.0000800012636360279 -0.9999999167909591
vn -0.00040002234016172554 -0.0000800012636360279 -0.9999999167909591
vn 0 0 -1
vn 0 0 -1
vn 0 0 -1
vn -0.00008000143763035021 0.00008000143763035021 -0.9999999935997701
vn -0.00008000143763035021 0.00008000143763035021 -0.9999999935997701
vn -0.00008000143763035021 0.00008000143763035021 -0.9999999935997701
vn -0.00019998035096341978 0.00005000666848023396 -0.999999978753596
vn -0.00019998035096341978 0.00005000666848023396 -0.999999978753596
vn -0.00019998035096341978 0.00005000666848023396 -0.999999978753596
vn -0.00007998943303267564 0 0.9999999968008453
vn -0.00007998943303267564 0 0.9999999968008453
vn -0.00007998943303267564 0 0.9999999968008453
vn -0.00004000642146120912 -0.00001665959551202666 0.999999999060972
vn -0.00004000642146120912 -0.00001665959551202666 0.999999999060972
vn -0.00004000642146120912 -0.00001665959551202666 0.999999999060972
vn 0.00004997937034609087 -0.00004997937034609087 0.9999999975020626
vn 0.00004997937034609087 -0.00004997937034609087 0.9999999975020626
vn 0.00004997937034609087 -0.00004997937034609087 0.9999999975020626
vn 0.0002000279959161357 -0.00007998951534477953 0.9999999767952388
vn 0.0002000279959161357 -0.00007998951534477953 0.9999999767952388
vn 0.0002000279959161357 -0.00007998951534477953 0.9999999767952388
vn 0.0003999471344555533 0 0.9999999200211416
vn 0.0003999471344555533 0 0.9999999200211416
vn 0.0003999471344555533 0 0.9999999200211416
vn 0.00007989399667033517 0.00008001318688249358 0.9999999936074195
vn 0.00007989399667033517 0.00008001318688249358 0.9999999936074195
vn 0.00007989399667033517 0.00008001318688249358 0.9999999936074195
g Scene
usemtl material0
f 1/1/1 3/2/2 2/3/3
f 1/4/4 4/5/5 3/6/6
f 5/7/7 6/8/8 7/9/9
f 5/10/10 8/11/11 6/12/12
f 9/13/13 10/14/14 11/15/15
f 9/16/16 12/17/17 10/18/18
f 13/19/19 14/20/20 15/21/21
f 13/22/22 16/23/23 14/24/24
f 17/25/25 18/26/26 19/27/27
f 17/28/28 20/29/29 18/30/30
f 21/31/31 22/32/32 23/33/33
f 21/34/34 24/35/35 22/36/36
f 25/37/37 26/38/38 27/39/39
f 25/40/40 28/41/41 26/42/42
f 29/43/43 30/44/44 31/45/45
f 29/46/46 32/47/47 30/48/48
f 33/49/49 34/50/50 35/51/51
f 33/52/52 36/53/53 34/54/54
f 37/55/55 38/56/56 39/57/57
f 37/58/58 40/59/59 38/60/60
f 41/61/61 42/62/62 43/63/63
f 41/64/64 44/65/65 42/66/66
f 45/67/67 46/68/68 47/69/69
f 45/70/70 48/71/71 46/72/72
f 49/73/73 50/74/74 51/75/75
f 49/76/76 52/77/77 50/78/78
