o Default
v -0.5 0 -0.5
v -0.5 2.999962329864502 -0.5
v -1.5 2 -0.5
v -1.5 0 -0.5
v -1.5 1 -0.5
v -1.5 2 0
v -1.5 2 -0.5
v -1.5 1 0
v -0.5 2.999922513961792 0
v 0.5 2.9999725818634033 -0.5
v -0.5 2.999962329864502 -0.5
v 0.5 2.999922513961792 0
v 0.5 2.999922513961792 0
v 1.5 1.9999722242355347 -0.5
v 0.5 2.9999725818634033 -0.5
v 1.5 1.999922275543213 -1.2499999924031613e-9
v -1.5 2 0
v -0.5 2.999962329864502 -0.5
v -1.5 2 -0.5
v -0.5 2.999922513961792 0
v 1.5 0 0
v 1.5 1 -0.5
v 1.5 1 0
v 1.5 0 -0.5
v 1.5 1 0
v 1.5 1.9999722242355347 -0.5
v 1.5 1.999922275543213 -1.2499999924031613e-9
v 1.5 1 -0.5
v -1.5 0 -0.5
v -1.5 1 0
v -1.5 1 -0.5
v -1.5 0 0
v 1.5 0 -0.5
v 0.5 0 -0.5
v 1.5 1.9999722242355347 -0.5
v 0.5 2.9999725818634033 -0.5
v 0.5 0 -0.5
v -0.5 2.999962329864502 -0.5
v 0.5 2.9999725818634033 -0.5
v -0.5 0 -0.5
v 1.5 1.999922275543213 -1.2499999924031613e-9
v 0.5 0 0
v 1.5 0 0
v 0.5 2.999922513961792 0
v 0.5 2.999922513961792 0
v -0.5 2.999922513961792 0
v 0.5 0 0
v -0.5 0 0
v -0.5 2.999922513961792 0
v -1.5 2 0
v -0.5 0 0
v -1.5 0 0
vt 0.1875 0.75
vt 0.25 0.8125
vt 0.1875 0.84375
vt 0.1875 0.75
vt 0.25 0.75
vt 0.25 0.8125
vt 0.125 0.90625
vt 0.15625 0.9375
vt 0.125 0.9375
vt 0.125 0.90625
vt 0.15625 0.90625
vt 0.15625 0.9375
vt 0.125 0.90625
vt 0.1875 0.921875
vt 0.125 0.921875
vt 0.125 0.90625
vt 0.1875 0.90625
vt 0.1875 0.921875
vt 0.125 0.90625
vt 0.1875 0.921875
vt 0.125 0.921875
vt 0.125 0.90625
vt 0.1875 0.90625
vt 0.1875 0.921875
vt 0.125 0.90625
vt 0.1875 0.921875
vt 0.125 0.921875
vt 0.125 0.90625
vt 0.1875 0.90625
vt 0.1875 0.921875
vt 0.125 0.90625
vt 0.15625 0.9375
vt 0.125 0.9375
vt 0.125 0.90625
vt 0.15625 0.90625
vt 0.15625 0.9375
vt 0.125 0.90625
vt 0.15625 0.9375
vt 0.125 0.9375
vt 0.125 0.90625
vt 0.15625 0.90625
vt 0.15625 0.9375
vt 0.125 0.90625
vt 0.15625 0.9375
vt 0.125 0.9375
vt 0.125 0.90625
vt 0.15625 0.90625
vt 0.15625 0.9375
vt 0.0625 0.75
vt 0.125 0.75
vt 0.0625 0.8125
vt 0.125 0.75
vt 0.125 0.84375
vt 0.0625 0.8125
vt 0.125 0.75
vt 0.1875 0.84375
vt 0.125 0.84375
vt 0.125 0.75
vt 0.1875 0.75
vt 0.1875 0.84375
vt 0.0625 0.8125
vt 0.125 0.75
vt 0.0625 0.75
vt 0.0625 0.8125
vt 0.125 0.84375
vt 0.125 0.75
vt 0.125 0.84375
vt 0.1875 0.84375
vt 0.125 0.75
vt 0.1875 0.84375
vt 0.1875 0.75
vt 0.125 0.75
vt 0.1875 0.84375
vt 0.25 0.8125
vt 0.1875 0.75
vt 0.25 0.8125
vt 0.25 0.75
vt 0.1875 0.75
vn 0 0 -1
vn 0 0 -1
vn 0 0 -1
vn 0 0 -1
vn 0 0 -1
vn 0 0 -1
vn -1 0 0
vn -1 0 0
vn -1 0 0
vn -1 0 0
vn -1 0 0
vn -1 0 0
vn -0.000010251998868323314 0.999999996776836 0.00007963180516325551
vn -0.000010251998868323314 0.999999996776836 0.00007963180516325551
vn -0.000010251998868323314 0.999999996776836 0.00007963180516325551
vn 0 0.9999999949864105 0.00010013580272061643
vn 0 0.9999999949864105 0.00010013580272061643
vn 0 0.9999999949864105 0.00010013580272061643
vn 0.707106905854488 0.7071066529734428 0.00007080669265957974
vn 0.707106905854488 0.7071066529734428 0.00007080669265957974
vn 0.707106905854488 0.7071066529734428 0.00007080669265957974
vn 0.707106863716133 0.7071066951286713 0.0000706381096838969
vn 0.707106863716133 0.7071066951286713 0.0000706381096838969
vn 0.707106863716133 0.7071066951286713 0.0000706381096838969
vn -0.7070934624061315 0.7071200997161011 0
vn -0.7070934624061315 0.7071200997161011 0
vn -0.7070934624061315 0.7071200997161011 0
vn -0.7070793830218559 0.7071341760476393 0.00005631037111280239
vn -0.7070793830218559 0.7071341760476393 0.00005631037111280239
vn -0.7070793830218559 0.7071341760476393 0.00005631037111280239
vn 1 0 0
vn 1 0 0
vn 1 0 0
vn 1 0 0
vn 1 0 0
vn 1 0 0
vn 1 0 0
vn 1 0 0
vn 1 0 0
vn 1 0 0
vn 1 0 0
vn 1 0 0
vn -1 0 0
vn -1 0 0
vn -1 0 0
vn -1 0 0
vn -1 0 0
vn -1 0 0
vn 0 0 -1
vn 0 0 -1
vn 0 0 -1
vn 0 0 -0.9999999999999999
vn 0 0 -0.9999999999999999
vn 0 0 -0.9999999999999999
vn 0 0 -0.9999999999999999
vn 0 0 -0.9999999999999999
vn 0 0 -0.9999999999999999
vn 0 0 -1
vn 0 0 -1
vn 0 0 -1
vn 0 6.250242860381361e-10 0.9999999999999999
vn 0 6.250242860381361e-10 0.9999999999999999
vn 0 6.250242860381361e-10 0.9999999999999999
vn 1.2499999924031613e-9 0 1
vn 1.2499999924031613e-9 0 1
vn 1.2499999924031613e-9 0 1
vn 0 0 1
vn 0 0 1
vn 0 0 1
vn 0 0 1
vn 0 0 1
vn 0 0 1
vn 0 0 1
vn 0 0 1
vn 0 0 1
vn 0 0 1
vn 0 0 1
vn 0 0 1
g Scene
usemtl material0
f 1/1/1 3/2/2 2/3/3
f 1/4/4 4/5/5 3/6/6
f 5/7/7 6/8/8 7/9/9
f 5/10/10 8/11/11 6/12/12
f 9/13/13 10/14/14 11/15/15
f 9/16/16 12/17/17 10/18/18
f 13/19/19 14/20/20 15/21/21
f 13/22/22 16/23/23 14/24/24
f 17/25/25 18/26/26 19/27/27
f 17/28/28 20/29/29 18/30/30
f 21/31/31 22/32/32 23/33/33
f 21/34/34 24/35/35 22/36/36
f 25/37/37 26/38/38 27/39/39
f 25/40/40 28/41/41 26/42/42
f 29/43/43 30/44/44 31/45/45
f 29/46/46 32/47/47 30/48/48
f 33/49/49 34/50/50 35/51/51
f 34/52/52 36/53/53 35/54/54
f 37/55/55 38/56/56 39/57/57
f 37/58/58 40/59/59 38/60/60
f 41/61/61 42/62/62 43/63/63
f 41/64/64 44/65/65 42/66/66
f 45/67/67 46/68/68 47/69/69
f 46/70/70 48/71/71 47/72/72
f 49/73/73 50/74/74 51/75/75
f 50/76/76 52/77/77 51/78/78
