o Default
v -1 -1.5 -0.25
v -1 1.5 -0.25
v -1 1.5 0.25
v -1 -1.5 0.25
v -1 1.5 0.25
v 1 1.4998478889465332 -0.24994999170303345
v -1 1.5 -0.25
v 1 1.4997978210449219 0.25005000829696655
v 1 -1.5002020597457886 0.25005000829696655
v 1 1.4998478889465332 -0.24994999170303345
v 1 1.4997978210449219 0.25005000829696655
v 1 -1.5002020597457886 -0.24995000660419464
v -1 0.25 0.25
v 1 1.4997978210449219 0.25005000829696655
v -1 1.5 0.25
v 1 0.25 0.25
v -1 -1.5 0.25
v 1 0.25 0.25
v -1 0.25 0.25
v 1 -1.5002020597457886 0.25005000829696655
v 1 0.25 -0.25
v -1 1.5 -0.25
v 1 1.4998478889465332 -0.24994999170303345
v -1 0.25 -0.25
v 1 -1.5002020597457886 -0.24995000660419464
v -1 0.25 -0.25
v 1 0.25 -0.25
v -1 -1.5 -0.25
vt 0 0.921875
vt 0.03125 0.9375
vt 0 0.9375
vt 0 0.921875
vt 0.03125 0.921875
vt 0.03125 0.9375
vt 0 0.921875
vt 0.03125 0.9375
vt 0 0.9375
vt 0 0.921875
vt 0.03125 0.921875
vt 0.03125 0.9375
vt 0 0.921875
vt 0.03125 0.9375
vt 0 0.9375
vt 0 0.921875
vt 0.03125 0.921875
vt 0.03125 0.9375
vt 0.25 0.7734375
vt 0.375 0.8125
vt 0.25 0.8125
vt 0.25 0.7734375
vt 0.375 0.7734375
vt 0.375 0.8125
vt 0.25 0.8125
vt 0.375 0.8671875
vt 0.25 0.8671875
vt 0.25 0.8125
vt 0.375 0.8125
vt 0.375 0.8671875
vt 0.25 0.7734375
vt 0.375 0.8125
vt 0.25 0.8125
vt 0.25 0.7734375
vt 0.375 0.7734375
vt 0.375 0.8125
vt 0.25 0.8125
vt 0.375 0.8671875
vt 0.25 0.8671875
vt 0.25 0.8125
vt 0.375 0.8125
vt 0.375 0.8671875
vn -1 0 0
vn -1 0 0
vn -1 0 0
vn -1 0 0
vn -1 0 0
vn -1 0 0
vn 0.000076055526513429 0.9999999971077784 0
vn 0.000076055526513429 0.9999999971077784 0
vn 0.000076055526513429 0.9999999971077784 0
vn 0.00010108697270527917 0.9999999898771225 0.00010013580220899378
vn 0.00010108697270527917 0.9999999898771225 0.00010013580220899378
vn 0.00010108697270527917 0.9999999898771225 0.00010013580220899378
vn 1 0 0
vn 1 0 0
vn 1 0 0
vn 1 0 0
vn 1 0 0
vn 1 0 0
vn -0.00002500414847545998 0 0.9999999996873964
vn -0.00002500414847545998 0 0.9999999996873964
vn -0.00002500414847545998 0 0.9999999996873964
vn 0 -0.00004001310938813231 0.9999999991994755
vn 0 -0.00004001310938813231 0.9999999991994755
vn 0 -0.00004001310938813231 0.9999999991994755
vn 0 0 1
vn 0 0 1
vn 0 0 1
vn -0.000025001261751772716 0.00002857287057345453 0.9999999992792639
vn -0.000025001261751772716 0.00002857287057345453 0.9999999992792639
vn -0.000025001261751772716 0.00002857287057345453 0.9999999992792639
vn 0.00002500719155164418 0.00004001150648263069 -0.99999999888686
vn 0.00002500719155164418 0.00004001150648263069 -0.99999999888686
vn 0.00002500719155164418 0.00004001150648263069 -0.99999999888686
vn 0 0 -1
vn 0 0 -1
vn 0 0 -1
vn 0 -0.000028564356616186877 -0.9999999995920387
vn 0 -0.000028564356616186877 -0.9999999995920387
vn 0 -0.000028564356616186877 -0.9999999995920387
vn 0.00002499669789487004 0 -0.9999999996875826
vn 0.00002499669789487004 0 -0.9999999996875826
vn 0.00002499669789487004 0 -0.9999999996875826
g Scene
usemtl material0
f 1/1/1 3/2/2 2/3/3
f 1/4/4 4/5/5 3/6/6
f 5/7/7 6/8/8 7/9/9
f 5/10/10 8/11/11 6/12/12
f 9/13/13 10/14/14 11/15/15
f 9/16/16 12/17/17 10/18/18
f 13/19/19 14/20/20 15/21/21
f 13/22/22 16/23/23 14/24/24
f 17/25/25 18/26/26 19/27/27
f 17/28/28 20/29/29 18/30/30
f 21/31/31 22/32/32 23/33/33
f 21/34/34 24/35/35 22/36/36
f 25/37/37 26/38/38 27/39/39
f 25/40/40 28/41/41 26/42/42
