o Default
v -0.5 -0.5 0.5
v -0.5 0.5 0.5
v 0.5 0.5 0.5
v 0.5 -0.5 0.5
v 0.5 -0.5 0.5
v 0.5 0.5 -0.5
v 0.5 0.5 0.5
v 0.5 -0.5 -0.5
v 0.5 -0.5 0.5
v -0.5 0.5 0.5
v 0.5 0.5 0.5
v -0.5 -0.5 0.5
v -0.5 -0.5 -0.5
v -0.5 0.5 0.5
v -0.5 0.5 -0.5
v -0.5 -0.5 0.5
v -0.5 -0.5 -0.5
v 0.5 0.5 -0.5
v -0.5 0.5 -0.5
v 0.5 -0.5 -0.5
v 0.5 -0.5 -0.5
v -0.5 0.5 -0.5
v 0.5 0.5 -0.5
v -0.5 -0.5 -0.5
v 0.5 -0.5 -0.5
v 0.5 0.5 0.5
v 0.5 0.5 -0.5
v 0.5 -0.5 0.5
v -0.5 -0.5 0.5
v -0.5 0.5 -0.5
v -0.5 0.5 0.5
v -0.5 -0.5 -0.5
v -0.5 -0.5 -0.5
v 0.5 -0.5 0.5
v -0.5 -0.5 0.5
v 0.5 -0.5 -0.5
v -0.5 -0.5 0.5
v 0.5 -0.5 -0.5
v -0.5 -0.5 -0.5
v 0.5 -0.5 0.5
v -0.5 0.5 0.5
v 0.5 0.5 -0.5
v -0.5 0.5 -0.5
v 0.5 0.5 0.5
v -0.5 0.5 -0.5
v 0.5 0.5 0.5
v -0.5 0.5 0.5
v 0.5 0.5000029802322388 -0.49994999170303345
vt 0.875 0.96875
vt 0.9375 1
vt 0.875 1
vt 0.875 0.96875
vt 0.9375 0.96875
vt 0.9375 1
vt 0.9375 0.96875
vt 1 1
vt 0.9375 1
vt 0.9375 0.96875
vt 1 0.96875
vt 1 1
vt 0.9375 0.96875
vt 1 1
vt 0.9375 1
vt 0.9375 0.96875
vt 1 0.96875
vt 1 1
vt 0.9375 0.96875
vt 1 1
vt 0.9375 1
vt 0.9375 0.96875
vt 1 0.96875
vt 1 1
vt 0.9375 0.96875
vt 1 1
vt 0.9375 1
vt 0.9375 0.96875
vt 1 0.96875
vt 1 1
vt 0.875 0.96875
vt 0.9375 1
vt 0.875 1
vt 0.875 0.96875
vt 0.9375 0.96875
vt 0.9375 1
vt 0.875 0.96875
vt 0.9375 1
vt 0.875 1
vt 0.875 0.96875
vt 0.9375 0.96875
vt 0.9375 1
vt 0.875 0.96875
vt 0.9375 1
vt 0.875 1
vt 0.875 0.96875
vt 0.9375 0.96875
vt 0.9375 1
vt 0.875 0.9375
vt 0.9375 0.96875
vt 0.875 0.96875
vt 0.875 0.9375
vt 0.9375 0.9375
vt 0.9375 0.96875
vt 0.875 0.9375
vt 0.9375 0.96875
vt 0.875 0.96875
vt 0.875 0.9375
vt 0.9375 0.9375
vt 0.9375 0.96875
vt 0.9375 0.9375
vt 1 0.96875
vt 0.9375 0.96875
vt 0.9375 0.9375
vt 1 0.9375
vt 1 0.96875
vt 0.9375 0.9375
vt 1 0.96875
vt 0.9375 0.96875
vt 0.9375 0.9375
vt 1 0.9375
vt 1 0.96875
vn 0 0 1
vn 0 0 1
vn 0 0 1
vn 0 0 1
vn 0 0 1
vn 0 0 1
vn 1 0 0
vn 1 0 0
vn 1 0 0
vn 1 0 0
vn 1 0 0
vn 1 0 0
vn 0 0 -1
vn 0 0 -1
vn 0 0 -1
vn 0 0 -1
vn 0 0 -1
vn 0 0 -1
vn -1 0 0
vn -1 0 0
vn -1 0 0
vn -1 0 0
vn -1 0 0
vn -1 0 0
vn 0 0 1
vn 0 0 1
vn 0 0 1
vn 0 0 1
vn 0 0 1
vn 0 0 1
vn 0 0 -1
vn 0 0 -1
vn 0 0 -1
vn 0 0 -1
vn 0 0 -1
vn 0 0 -1
vn -1 0 0
vn -1 0 0
vn -1 0 0
vn -1 0 0
vn -1 0 0
vn -1 0 0
vn 1 0 0
vn 1 0 0
vn 1 0 0
vn 1 0 0
vn 1 0 0
vn 1 0 0
vn 0 -1 0
vn 0 -1 0
vn 0 -1 0
vn 0 -1 0
vn 0 -1 0
vn 0 -1 0
vn 0 1 0
vn 0 1 0
vn 0 1 0
vn 0 1 0
vn 0 1 0
vn 0 1 0
vn 0 1 0
vn 0 1 0
vn 0 1 0
vn 0 1 0
vn 0 1 0
vn 0 1 0
vn 0 -1 0
vn 0 -1 0
vn 0 -1 0
vn 0.000002980381282535309 -0.9999999999911172 -0.000002980381282535309
vn 0.000002980381282535309 -0.9999999999911172 -0.000002980381282535309
vn 0.000002980381282535309 -0.9999999999911172 -0.000002980381282535309
g Scene
usemtl material1
f 1/1/1 3/2/2 2/3/3
f 1/4/4 4/5/5 3/6/6
f 5/7/7 6/8/8 7/9/9
f 5/10/10 8/11/11 6/12/12
f 9/13/13 10/14/14 11/15/15
f 9/16/16 12/17/17 10/18/18
f 13/19/19 14/20/20 15/21/21
f 13/22/22 16/23/23 14/24/24
f 17/25/25 18/26/26 19/27/27
f 17/28/28 20/29/29 18/30/30
f 21/31/31 22/32/32 23/33/33
f 21/34/34 24/35/35 22/36/36
f 25/37/37 26/38/38 27/39/39
f 25/40/40 28/41/41 26/42/42
f 29/43/43 30/44/44 31/45/45
f 29/46/46 32/47/47 30/48/48
f 33/49/49 34/50/50 35/51/51
f 33/52/52 36/53/53 34/54/54
f 37/55/55 38/56/56 39/57/57
f 37/58/58 40/59/59 38/60/60
f 41/61/61 42/62/62 43/63/63
f 41/64/64 44/65/65 42/66/66
f 45/67/67 46/68/68 47/69/69
f 45/70/70 48/71/71 46/72/72
