o Default
v -0.25 -0.00007566472049802542 0.25
v -0.25 -0.00002565642171248328 -0.25
v 0.25 -0.00002565642171248328 -0.25
v 0.25 -0.00007566472049802542 0.25
v -0.25 -0.12501336634159088 -0.24995000660419464
v 0.25 -0.12496335059404373 0.25005000829696655
v -0.25 -0.12496335059404373 0.25005000829696655
v 0.25 -0.12501336634159088 -0.24995000660419464
v -0.25 -0.3125 0.25
v 0.25 -0.00007566472049802542 0.25
v -0.25 -0.00007566472049802542 0.25
v 0.25 -0.3125 0.25
v -0.25 -0.3125 -0.25
v -0.25 -0.00007566472049802542 0.25
v -0.25 -0.00002565642171248328 -0.25
v -0.25 -0.3125 0.25
v 0.25 -0.3125 0.25
v 0.25 -0.00002565642171248328 -0.25
v 0.25 -0.00007566472049802542 0.25
v 0.25 -0.3125 -0.25
v 0.25 -0.3125 -0.25
v -0.25 -0.00002565642171248328 -0.25
v 0.25 -0.00002565642171248328 -0.25
v -0.25 -0.3125 -0.25
vt 0.71875 0.953125
vt 0.75 0.96875
vt 0.71875 0.96875
vt 0.71875 0.953125
vt 0.75 0.953125
vt 0.75 0.96875
vt 0.71875 0.953125
vt 0.75 0.96875
vt 0.71875 0.96875
vt 0.71875 0.953125
vt 0.75 0.953125
vt 0.75 0.96875
vt 0.71875 0.990234375
vt 0.75 1
vt 0.71875 1
vt 0.71875 0.990234375
vt 0.75 0.990234375
vt 0.75 1
vt 0.71875 0.990234375
vt 0.75 1
vt 0.71875 1
vt 0.71875 0.990234375
vt 0.75 0.990234375
vt 0.75 1
vt 0.71875 0.990234375
vt 0.75 1
vt 0.71875 1
vt 0.71875 0.990234375
vt 0.75 0.990234375
vt 0.75 1
vt 0.71875 0.990234375
vt 0.75 1
vt 0.71875 1
vt 0.71875 0.990234375
vt 0.75 0.990234375
vt 0.75 1
vn 0 0.9999999949983402 0.00010001659707083529
vn 0 0.9999999949983402 0.00010001659707083529
vn 0 0.9999999949983402 0.00010001659707083529
vn 0 0.9999999949983402 0.00010001659707083529
vn 0 0.9999999949983402 0.00010001659707083529
vn 0 0.9999999949983402 0.00010001659707083529
vn 0 -0.9999999949968503 0.00010003149161265601
vn 0 -0.9999999949968503 0.00010003149161265601
vn 0 -0.9999999949968503 0.00010003149161265601
vn 0 -0.9999999949968503 0.00010003149161265601
vn 0 -0.9999999949968503 0.00010003149161265601
vn 0 -0.9999999949968503 0.00010003149161265601
vn 0 0 1
vn 0 0 1
vn 0 0 1
vn 0 0 1
vn 0 0 1
vn 0 0 1
vn -1 0 0
vn -1 0 0
vn -1 0 0
vn -1 0 0
vn -1 0 0
vn -1 0 0
vn 1 0 0
vn 1 0 0
vn 1 0 0
vn 1 0 0
vn 1 0 0
vn 1 0 0
vn 0 0 -1
vn 0 0 -1
vn 0 0 -1
vn 0 0 -1
vn 0 0 -1
vn 0 0 -1
g Scene
usemtl material0
f 1/1/1 3/2/2 2/3/3
f 1/4/4 4/5/5 3/6/6
f 5/7/7 6/8/8 7/9/9
f 5/10/10 8/11/11 6/12/12
f 9/13/13 10/14/14 11/15/15
f 9/16/16 12/17/17 10/18/18
f 13/19/19 14/20/20 15/21/21
f 13/22/22 16/23/23 14/24/24
f 17/25/25 18/26/26 19/27/27
f 17/28/28 20/29/29 18/30/30
f 21/31/31 22/32/32 23/33/33
f 21/34/34 24/35/35 22/36/36
